<svg xmlns="http://www.w3.org/2000/svg" xmlns:xlink="http://www.w3.org/1999/xlink" width="1640" zoomAndPan="magnify" viewBox="0 0 1230 487.499991" height="650" preserveAspectRatio="xMidYMid meet" version="1.0"><defs><clipPath id="8aeb305921"><path d="M 337.230469 13.644531 L 861 13.644531 L 861 473.671875 L 337.230469 473.671875 Z M 337.230469 13.644531 " clip-rule="nonzero"/></clipPath><clipPath id="589c42187d"><path d="M 822 288 L 892.410156 288 L 892.410156 295 L 822 295 Z M 822 288 " clip-rule="nonzero"/></clipPath></defs><g clip-path="url(#8aeb305921)"><path fill="#004aad" d="M 836.640625 286.335938 C 843.886719 272.578125 848.039062 256.9375 848.039062 240.304688 C 848.039062 198.03125 821.484375 162.046875 784.183594 147.867188 C 784.183594 147.820312 784.191406 147.777344 784.191406 147.726562 C 784.191406 73.675781 724.160156 13.644531 650.113281 13.644531 C 587.644531 13.644531 535.308594 56.429688 520.417969 114.25 C 510.996094 111.152344 500.953125 109.417969 490.492188 109.417969 C 441.382812 109.417969 400.960938 146.402344 395.425781 194.027344 C 362.199219 201.054688 337.261719 230.527344 337.261719 265.84375 C 337.261719 306.390625 370.136719 339.265625 410.683594 339.265625 C 411.816406 339.265625 412.933594 339.191406 414.042969 339.125 C 414.015625 340.242188 413.875 341.335938 413.875 342.460938 C 413.875 414.746094 472.476562 473.347656 544.765625 473.347656 C 585.863281 473.347656 622.496094 454.371094 646.5 424.734375 C 660.402344 438.9375 679.738281 447.808594 701.191406 447.808594 C 730.878906 447.808594 756.570312 430.886719 769.289062 406.191406 C 776.007812 408.332031 783.148438 409.5 790.574219 409.5 C 829.363281 409.5 860.808594 378.054688 860.808594 339.265625 C 860.808594 318.125 851.421875 299.214844 836.640625 286.335938 Z M 836.640625 286.335938 " fill-opacity="1" fill-rule="nonzero"/></g><path fill="#282524" d="M 416.460938 211.570312 L 353.222656 211.570312 C 351.460938 211.570312 350.03125 210.140625 350.03125 208.378906 C 350.03125 206.617188 351.460938 205.1875 353.222656 205.1875 L 416.460938 205.1875 C 418.226562 205.1875 419.65625 206.617188 419.65625 208.378906 C 419.65625 210.140625 418.230469 211.570312 416.460938 211.570312 Z M 416.460938 211.570312 " fill-opacity="1" fill-rule="nonzero"/><path fill="#282524" d="M 436.222656 211.570312 L 429.839844 211.570312 C 428.078125 211.570312 426.644531 210.140625 426.644531 208.378906 C 426.644531 206.617188 428.078125 205.1875 429.839844 205.1875 L 436.222656 205.1875 C 437.984375 205.1875 439.414062 206.617188 439.414062 208.378906 C 439.414062 210.140625 437.992188 211.570312 436.222656 211.570312 Z M 436.222656 211.570312 " fill-opacity="1" fill-rule="nonzero"/><path fill="#282524" d="M 468.089844 224.339844 L 410.683594 224.339844 C 408.921875 224.339844 407.492188 222.910156 407.492188 221.148438 C 407.492188 219.386719 408.921875 217.957031 410.683594 217.957031 L 468.089844 217.957031 C 469.851562 217.957031 471.28125 219.386719 471.28125 221.148438 C 471.28125 222.910156 469.851562 224.339844 468.089844 224.339844 Z M 468.089844 224.339844 " fill-opacity="1" fill-rule="nonzero"/><path fill="#282524" d="M 397.914062 224.339844 L 391.53125 224.339844 C 389.769531 224.339844 388.339844 222.910156 388.339844 221.148438 C 388.339844 219.386719 389.769531 217.957031 391.53125 217.957031 L 397.914062 217.957031 C 399.675781 217.957031 401.109375 219.386719 401.109375 221.148438 C 401.109375 222.910156 399.683594 224.339844 397.914062 224.339844 Z M 397.914062 224.339844 " fill-opacity="1" fill-rule="nonzero"/><path fill="#282524" d="M 378.761719 224.339844 L 365.992188 224.339844 C 364.230469 224.339844 362.800781 222.910156 362.800781 221.148438 C 362.800781 219.386719 364.230469 217.957031 365.992188 217.957031 L 378.761719 217.957031 C 380.523438 217.957031 381.953125 219.386719 381.953125 221.148438 C 381.953125 222.910156 380.53125 224.339844 378.761719 224.339844 Z M 378.761719 224.339844 " fill-opacity="1" fill-rule="nonzero"/><path fill="#282524" d="M 417.070312 237.109375 L 404.300781 237.109375 C 402.539062 237.109375 401.109375 235.679688 401.109375 233.917969 C 401.109375 232.15625 402.539062 230.726562 404.300781 230.726562 L 417.070312 230.726562 C 418.832031 230.726562 420.261719 232.15625 420.261719 233.917969 C 420.261719 235.679688 418.832031 237.109375 417.070312 237.109375 Z M 417.070312 237.109375 " fill-opacity="1" fill-rule="nonzero"/><path fill="#282524" d="M 436.222656 179.648438 C 435.09375 179.648438 430.96875 179.648438 429.839844 179.648438 C 428.078125 179.648438 426.644531 181.078125 426.644531 182.839844 C 426.644531 184.601562 428.078125 186.03125 429.839844 186.03125 C 430.96875 186.03125 435.09375 186.03125 436.222656 186.03125 C 437.984375 186.03125 439.414062 184.601562 439.414062 182.839844 C 439.414062 181.078125 437.984375 179.648438 436.222656 179.648438 Z M 436.222656 179.648438 " fill-opacity="1" fill-rule="nonzero"/><path fill="#282524" d="M 436.222656 192.417969 C 435.09375 192.417969 405.429688 192.417969 404.300781 192.417969 C 402.539062 192.417969 401.109375 193.847656 401.109375 195.609375 C 401.109375 197.371094 402.539062 198.800781 404.300781 198.800781 C 405.429688 198.800781 435.09375 198.800781 436.222656 198.800781 C 437.984375 198.800781 439.414062 197.371094 439.414062 195.609375 C 439.414062 193.847656 437.984375 192.417969 436.222656 192.417969 Z M 436.222656 192.417969 " fill-opacity="1" fill-rule="nonzero"/><path fill="#282524" d="M 468.148438 205.1875 C 467.015625 205.1875 450.121094 205.1875 448.992188 205.1875 C 447.230469 205.1875 445.800781 206.617188 445.800781 208.378906 C 445.800781 210.140625 447.230469 211.570312 448.992188 211.570312 C 450.121094 211.570312 467.015625 211.570312 468.148438 211.570312 C 469.910156 211.570312 471.339844 210.140625 471.339844 208.378906 C 471.339844 206.617188 469.910156 205.1875 468.148438 205.1875 Z M 468.148438 205.1875 " fill-opacity="1" fill-rule="nonzero"/><path fill="#282524" d="M 832.078125 281.804688 L 768.230469 281.804688 C 766.46875 281.804688 765.035156 280.375 765.035156 278.613281 C 765.035156 276.847656 766.46875 275.417969 768.230469 275.417969 L 832.078125 275.417969 C 833.839844 275.417969 835.269531 276.847656 835.269531 278.613281 C 835.269531 280.375 833.839844 281.804688 832.078125 281.804688 Z M 832.078125 281.804688 " fill-opacity="1" fill-rule="nonzero"/><path fill="#282524" d="M 857.617188 281.804688 L 844.847656 281.804688 C 843.082031 281.804688 841.652344 280.375 841.652344 278.613281 C 841.652344 276.847656 843.082031 275.417969 844.847656 275.417969 L 857.617188 275.417969 C 859.378906 275.417969 860.808594 276.847656 860.808594 278.613281 C 860.808594 280.375 859.378906 281.804688 857.617188 281.804688 Z M 857.617188 281.804688 " fill-opacity="1" fill-rule="nonzero"/><g clip-path="url(#589c42187d)"><path fill="#282524" d="M 889.539062 294.574219 L 825.691406 294.574219 C 823.929688 294.574219 822.5 293.144531 822.5 291.382812 C 822.5 289.617188 823.929688 288.1875 825.691406 288.1875 L 889.539062 288.1875 C 891.300781 288.1875 892.730469 289.617188 892.730469 291.382812 C 892.730469 293.144531 891.308594 294.574219 889.539062 294.574219 Z M 889.539062 294.574219 " fill-opacity="1" fill-rule="nonzero"/></g><path fill="#282524" d="M 812.921875 294.574219 L 806.539062 294.574219 C 804.777344 294.574219 803.34375 293.144531 803.34375 291.382812 C 803.34375 289.617188 804.777344 288.1875 806.539062 288.1875 L 812.921875 288.1875 C 814.683594 288.1875 816.113281 289.617188 816.113281 291.382812 C 816.113281 293.144531 814.683594 294.574219 812.921875 294.574219 Z M 812.921875 294.574219 " fill-opacity="1" fill-rule="nonzero"/><path fill="#282524" d="M 792.96875 294.574219 L 781 294.574219 C 779.238281 294.574219 777.804688 293.144531 777.804688 291.382812 C 777.804688 289.617188 779.238281 288.1875 781 288.1875 L 792.96875 288.1875 C 794.730469 288.1875 796.164062 289.617188 796.164062 291.382812 C 796.164062 293.144531 794.730469 294.574219 792.96875 294.574219 Z M 792.96875 294.574219 " fill-opacity="1" fill-rule="nonzero"/><path fill="#282524" d="M 851.230469 269.035156 L 819.308594 269.035156 C 817.542969 269.035156 816.113281 267.605469 816.113281 265.84375 C 816.113281 264.082031 817.542969 262.648438 819.308594 262.648438 L 851.230469 262.648438 C 852.992188 262.648438 854.421875 264.082031 854.421875 265.84375 C 854.421875 267.605469 853 269.035156 851.230469 269.035156 Z M 851.230469 269.035156 " fill-opacity="1" fill-rule="nonzero"/><path fill="#282524" d="M 832.078125 307.34375 L 819.308594 307.34375 C 817.542969 307.34375 816.113281 305.914062 816.113281 304.152344 C 816.113281 302.386719 817.542969 300.957031 819.308594 300.957031 L 832.078125 300.957031 C 833.839844 300.957031 835.269531 302.386719 835.269531 304.152344 C 835.269531 305.914062 833.839844 307.34375 832.078125 307.34375 Z M 832.078125 307.34375 " fill-opacity="1" fill-rule="nonzero"/><path fill="#fdfcef" d="M 735.507812 109.417969 L 780.199219 109.417969 L 780.199219 106.222656 C 780.199219 106.222656 815.746094 106.222656 828.085938 106.222656 C 840.429688 106.222656 850.433594 96.21875 850.433594 83.878906 C 850.433594 71.535156 840.429688 61.53125 828.085938 61.53125 C 826.890625 61.53125 825.75 61.703125 824.605469 61.882812 C 823.265625 54.425781 816.773438 48.761719 808.933594 48.761719 C 805.160156 48.761719 801.730469 50.128906 798.996094 52.324219 C 799.164062 51.148438 799.355469 49.980469 799.355469 48.761719 C 799.355469 34.65625 787.917969 23.222656 773.816406 23.222656 C 761.539062 23.222656 751.304688 31.886719 748.851562 43.429688 C 744.765625 38.898438 738.902344 35.992188 732.316406 35.992188 C 719.972656 35.992188 709.96875 45.996094 709.96875 58.339844 C 709.96875 59.53125 710.140625 60.675781 710.320312 61.816406 C 699.339844 63.230469 690.816406 72.507812 690.816406 83.878906 C 690.816406 96.21875 700.820312 106.222656 713.160156 106.222656 C 725.503906 106.222656 735.507812 106.222656 735.507812 106.222656 Z M 735.507812 109.417969 " fill-opacity="1" fill-rule="nonzero"/><path fill="#282524" d="M 722.738281 75.898438 C 722.738281 69.851562 717.816406 64.925781 711.761719 64.925781 C 711.679688 64.914062 707.492188 64.914062 704.65625 65.679688 C 703.808594 65.917969 702.933594 65.414062 702.703125 64.558594 C 702.472656 63.707031 702.976562 62.832031 703.828125 62.605469 C 707.0625 61.730469 711.550781 61.792969 711.769531 61.734375 C 719.578125 61.734375 725.929688 68.089844 725.929688 75.898438 C 725.929688 76.777344 725.214844 77.492188 724.335938 77.492188 C 723.453125 77.492188 722.738281 76.777344 722.738281 75.898438 Z M 722.738281 75.898438 " fill-opacity="1" fill-rule="nonzero"/><path fill="#282524" d="M 770.625 106.222656 C 770.625 106.648438 770.542969 107.054688 770.378906 107.445312 C 770.21875 107.835938 769.988281 108.183594 769.6875 108.480469 C 769.390625 108.78125 769.042969 109.011719 768.652344 109.171875 C 768.261719 109.335938 767.855469 109.417969 767.429688 109.417969 C 767.007812 109.417969 766.601562 109.335938 766.210938 109.171875 C 765.816406 109.011719 765.472656 108.78125 765.175781 108.480469 C 764.875 108.183594 764.644531 107.835938 764.480469 107.445312 C 764.320312 107.054688 764.238281 106.648438 764.238281 106.222656 C 764.238281 105.800781 764.320312 105.394531 764.480469 105.003906 C 764.644531 104.609375 764.875 104.265625 765.175781 103.964844 C 765.472656 103.667969 765.816406 103.4375 766.210938 103.273438 C 766.601562 103.113281 767.007812 103.03125 767.429688 103.03125 C 767.855469 103.03125 768.261719 103.113281 768.652344 103.273438 C 769.042969 103.4375 769.390625 103.667969 769.6875 103.964844 C 769.988281 104.265625 770.21875 104.609375 770.378906 105.003906 C 770.542969 105.394531 770.625 105.800781 770.625 106.222656 Z M 770.625 106.222656 " fill-opacity="1" fill-rule="nonzero"/><path fill="#282524" d="M 687.621094 83.878906 C 687.621094 72.1875 695.671875 62.105469 706.800781 59.246094 C 706.78125 58.945312 706.777344 58.644531 706.777344 58.339844 C 706.777344 44.253906 718.230469 32.800781 732.316406 32.800781 C 737.710938 32.800781 742.957031 34.5625 747.300781 37.742188 C 751.6875 27.226562 762.125 20.03125 773.816406 20.03125 C 788.972656 20.03125 801.421875 31.824219 802.476562 46.71875 C 804.53125 45.957031 806.703125 45.570312 808.933594 45.570312 C 817.160156 45.570312 824.332031 50.804688 826.976562 58.375 C 827.34375 58.351562 827.710938 58.339844 828.085938 58.339844 C 842.171875 58.339844 853.625 69.792969 853.625 83.878906 C 853.625 97.960938 842.171875 109.417969 828.085938 109.417969 L 780.199219 109.417969 C 778.4375 109.417969 777.007812 107.984375 777.007812 106.222656 C 777.007812 104.460938 778.4375 103.03125 780.199219 103.03125 L 828.085938 103.03125 C 838.644531 103.03125 847.242188 94.4375 847.242188 83.878906 C 847.242188 73.316406 838.644531 64.722656 828.085938 64.722656 C 827.066406 64.722656 826.082031 64.882812 825.097656 65.035156 C 823.355469 65.296875 821.773438 64.15625 821.464844 62.449219 C 820.375 56.367188 815.097656 51.953125 808.933594 51.953125 C 806.066406 51.953125 803.324219 52.945312 800.996094 54.8125 C 799.972656 55.632812 798.589844 55.53125 797.445312 54.878906 C 796.304688 54.226562 795.714844 52.726562 795.902344 51.429688 C 796.027344 50.550781 796.164062 49.675781 796.164062 48.761719 C 796.164062 36.4375 786.136719 26.414062 773.816406 26.414062 C 763.339844 26.414062 754.152344 33.851562 751.96875 44.09375 C 751.71875 45.269531 750.832031 46.203125 749.667969 46.515625 C 748.527344 46.832031 747.273438 46.457031 746.476562 45.570312 C 742.765625 41.449219 737.734375 39.183594 732.308594 39.183594 C 721.75 39.183594 713.15625 47.777344 713.15625 58.339844 C 713.15625 59.359375 713.3125 60.351562 713.46875 61.328125 C 713.601562 62.175781 713.382812 63.042969 712.867188 63.734375 C 712.351562 64.421875 711.578125 64.871094 710.722656 64.984375 C 701.191406 66.203125 694.007812 74.324219 694.007812 83.878906 C 694.007812 94.4375 702.601562 103.03125 713.160156 103.03125 L 735.507812 103.03125 C 737.269531 103.03125 738.699219 104.460938 738.699219 106.222656 C 738.699219 107.984375 737.269531 109.417969 735.507812 109.417969 L 713.160156 109.417969 C 699.078125 109.417969 687.621094 97.960938 687.621094 83.878906 Z M 687.621094 83.878906 " fill-opacity="1" fill-rule="nonzero"/><path fill="#282524" d="M 745.085938 106.222656 C 745.085938 107.984375 746.515625 109.417969 748.277344 109.417969 C 749.292969 109.417969 753.648438 109.417969 754.660156 109.417969 C 756.425781 109.417969 757.855469 107.984375 757.855469 106.222656 C 757.855469 104.460938 756.425781 103.03125 754.660156 103.03125 C 753.648438 103.03125 749.292969 103.03125 748.277344 103.03125 C 746.515625 103.03125 745.085938 104.460938 745.085938 106.222656 Z M 745.085938 106.222656 " fill-opacity="1" fill-rule="nonzero"/><path fill="#282524" d="M 723.535156 288.1875 C 721.773438 288.1875 720.34375 286.757812 720.34375 284.996094 L 720.34375 144.53125 C 720.34375 136.8125 715.535156 133.359375 710.765625 133.359375 C 705.996094 133.359375 701.191406 136.8125 701.191406 144.53125 C 701.191406 146.292969 699.757812 147.726562 697.996094 147.726562 C 696.234375 147.726562 694.804688 146.292969 694.804688 144.53125 C 694.804688 121.476562 726.730469 121.476562 726.730469 144.53125 L 726.730469 284.996094 C 726.730469 286.757812 725.296875 288.1875 723.535156 288.1875 Z M 723.535156 288.1875 " fill-opacity="1" fill-rule="nonzero"/><path fill="#afaeae" d="M 537.632812 398.644531 C 535.230469 398.644531 533.269531 396.691406 533.269531 394.285156 L 533.269531 184.546875 L 526.886719 184.546875 L 526.886719 151.691406 C 526.886719 148.441406 529.53125 145.804688 532.773438 145.804688 L 703.597656 145.804688 C 706.847656 145.804688 709.484375 148.441406 709.484375 151.691406 L 709.484375 184.546875 L 703.097656 184.546875 L 703.097656 394.285156 C 703.097656 396.691406 701.144531 398.644531 698.738281 398.644531 Z M 537.632812 398.644531 " fill-opacity="1" fill-rule="nonzero"/><path fill="#282524" d="M 703.601562 150.277344 C 704.386719 150.277344 705.019531 150.917969 705.019531 151.695312 L 705.019531 180.082031 L 698.636719 180.082031 L 698.636719 189.019531 L 698.746094 394.175781 L 537.742188 394.285156 L 537.742188 180.082031 L 531.355469 180.082031 L 531.355469 151.695312 C 531.355469 150.910156 531.996094 150.277344 532.773438 150.277344 L 703.601562 150.277344 M 703.601562 141.339844 L 532.773438 141.339844 C 527.050781 141.339844 522.417969 145.976562 522.417969 151.695312 L 522.417969 189.019531 L 528.800781 189.019531 L 528.800781 394.285156 C 528.800781 399.160156 532.753906 403.113281 537.632812 403.113281 L 698.746094 403.113281 C 703.621094 403.113281 707.574219 399.160156 707.574219 394.285156 L 707.574219 189.019531 L 713.960938 189.019531 L 713.960938 151.695312 C 713.960938 145.976562 709.324219 141.339844 703.601562 141.339844 Z M 703.601562 141.339844 " fill-opacity="1" fill-rule="nonzero"/><path fill="#282524" d="M 669.265625 147.726562 L 650.113281 147.726562 C 646.582031 147.726562 643.726562 144.871094 643.726562 141.339844 C 643.726562 137.808594 646.582031 134.957031 650.113281 134.957031 L 662.882812 134.957031 L 662.882812 128.367188 C 662.882812 111.914062 643.25 103.03125 624.777344 103.03125 L 611.597656 103.03125 C 593.128906 103.03125 573.496094 111.914062 573.496094 128.367188 L 573.496094 134.957031 L 586.265625 134.957031 C 589.789062 134.957031 592.648438 137.808594 592.648438 141.339844 C 592.648438 144.871094 589.789062 147.726562 586.265625 147.726562 L 567.109375 147.726562 C 563.585938 147.726562 560.726562 144.871094 560.726562 141.339844 L 560.726562 128.367188 C 560.726562 103.617188 586.933594 90.261719 611.597656 90.261719 L 624.777344 90.261719 C 649.441406 90.261719 675.652344 103.617188 675.652344 128.367188 L 675.652344 141.339844 C 675.652344 144.871094 672.796875 147.726562 669.265625 147.726562 Z M 669.265625 147.726562 " fill-opacity="1" fill-rule="nonzero"/><path fill="#282524" d="M 701.191406 329.691406 L 599.035156 329.691406 C 597.273438 329.691406 595.839844 328.257812 595.839844 326.496094 C 595.839844 324.734375 597.273438 323.304688 599.035156 323.304688 L 701.191406 323.304688 C 702.953125 323.304688 704.382812 324.734375 704.382812 326.496094 C 704.382812 328.257812 702.953125 329.691406 701.191406 329.691406 Z M 701.191406 329.691406 " fill-opacity="1" fill-rule="nonzero"/><path fill="#282524" d="M 567.109375 329.691406 L 535.1875 329.691406 C 533.425781 329.691406 531.996094 328.257812 531.996094 326.496094 C 531.996094 324.734375 533.425781 323.304688 535.1875 323.304688 L 567.109375 323.304688 C 568.871094 323.304688 570.300781 324.734375 570.300781 326.496094 C 570.300781 328.257812 568.871094 329.691406 567.109375 329.691406 Z M 567.109375 329.691406 " fill-opacity="1" fill-rule="nonzero"/><path fill="#282524" d="M 701.191406 246.6875 L 599.035156 246.6875 C 597.273438 246.6875 595.839844 245.257812 595.839844 243.496094 C 595.839844 241.734375 597.273438 240.304688 599.035156 240.304688 L 701.191406 240.304688 C 702.953125 240.304688 704.382812 241.734375 704.382812 243.496094 C 704.382812 245.257812 702.953125 246.6875 701.191406 246.6875 Z M 701.191406 246.6875 " fill-opacity="1" fill-rule="nonzero"/><path fill="#282524" d="M 710.765625 186.03125 L 528.800781 186.03125 C 527.039062 186.03125 525.609375 184.601562 525.609375 182.839844 C 525.609375 181.078125 527.039062 179.648438 528.800781 179.648438 L 710.765625 179.648438 C 712.527344 179.648438 713.960938 181.078125 713.960938 182.839844 C 713.960938 184.601562 712.527344 186.03125 710.765625 186.03125 Z M 710.765625 186.03125 " fill-opacity="1" fill-rule="nonzero"/><path fill="#282524" d="M 567.109375 246.6875 L 535.1875 246.6875 C 533.425781 246.6875 531.996094 245.257812 531.996094 243.496094 C 531.996094 241.734375 533.425781 240.304688 535.1875 240.304688 L 567.109375 240.304688 C 568.871094 240.304688 570.300781 241.734375 570.300781 243.496094 C 570.300781 245.257812 568.871094 246.6875 567.109375 246.6875 Z M 567.109375 246.6875 " fill-opacity="1" fill-rule="nonzero"/><path fill="#afaeae" d="M 720.34375 304.152344 L 704.382812 304.152344 L 704.382812 284.996094 L 720.34375 284.996094 C 725.628906 284.996094 729.921875 289.285156 729.921875 294.574219 C 729.921875 299.859375 725.628906 304.152344 720.34375 304.152344 Z M 720.34375 304.152344 " fill-opacity="1" fill-rule="nonzero"/><path fill="#282524" d="M 720.34375 307.34375 L 704.382812 307.34375 C 702.621094 307.34375 701.191406 305.914062 701.191406 304.152344 L 701.191406 284.996094 C 701.191406 283.234375 702.621094 281.804688 704.382812 281.804688 L 720.34375 281.804688 C 727.386719 281.804688 733.113281 287.53125 733.113281 294.574219 C 733.113281 301.617188 727.386719 307.34375 720.34375 307.34375 Z M 707.574219 300.957031 L 720.34375 300.957031 C 723.867188 300.957031 726.730469 298.097656 726.730469 294.574219 C 726.730469 291.050781 723.867188 288.1875 720.34375 288.1875 L 707.574219 288.1875 Z M 707.574219 300.957031 " fill-opacity="1" fill-rule="nonzero"/><path fill="#282524" d="M 512.839844 288.1875 C 511.078125 288.1875 509.648438 286.757812 509.648438 284.996094 L 509.648438 144.53125 C 509.648438 121.476562 541.570312 121.476562 541.570312 144.53125 C 541.570312 146.292969 540.140625 147.726562 538.378906 147.726562 C 536.617188 147.726562 535.1875 146.292969 535.1875 144.53125 C 535.1875 136.8125 530.378906 133.359375 525.609375 133.359375 C 520.839844 133.359375 516.03125 136.8125 516.03125 144.53125 L 516.03125 284.996094 C 516.03125 286.757812 514.601562 288.1875 512.839844 288.1875 Z M 512.839844 288.1875 " fill-opacity="1" fill-rule="nonzero"/><path fill="#afaeae" d="M 516.03125 304.152344 L 531.996094 304.152344 L 531.996094 284.996094 L 516.03125 284.996094 C 510.746094 284.996094 506.457031 289.285156 506.457031 294.574219 C 506.457031 299.859375 510.746094 304.152344 516.03125 304.152344 Z M 516.03125 304.152344 " fill-opacity="1" fill-rule="nonzero"/><path fill="#282524" d="M 531.996094 307.34375 L 516.03125 307.34375 C 508.988281 307.34375 503.261719 301.617188 503.261719 294.574219 C 503.261719 287.53125 508.988281 281.804688 516.03125 281.804688 L 531.996094 281.804688 C 533.757812 281.804688 535.1875 283.234375 535.1875 284.996094 L 535.1875 304.152344 C 535.1875 305.914062 533.757812 307.34375 531.996094 307.34375 Z M 516.03125 288.1875 C 512.515625 288.1875 509.648438 291.050781 509.648438 294.574219 C 509.648438 298.097656 512.515625 300.957031 516.03125 300.957031 L 528.800781 300.957031 L 528.800781 288.1875 Z M 516.03125 288.1875 " fill-opacity="1" fill-rule="nonzero"/><path fill="#282524" d="M 685.226562 229.128906 C 684.347656 229.128906 683.632812 228.414062 683.632812 227.535156 L 683.632812 195.609375 C 683.632812 194.730469 684.347656 194.015625 685.226562 194.015625 C 686.109375 194.015625 686.824219 194.730469 686.824219 195.609375 L 686.824219 227.535156 C 686.824219 228.414062 686.109375 229.128906 685.226562 229.128906 Z M 685.226562 229.128906 " fill-opacity="1" fill-rule="nonzero"/><path fill="#282524" d="M 685.226562 385.554688 C 684.347656 385.554688 683.632812 384.839844 683.632812 383.960938 L 683.632812 339.265625 C 683.632812 338.386719 684.347656 337.671875 685.226562 337.671875 C 686.109375 337.671875 686.824219 338.386719 686.824219 339.265625 L 686.824219 383.960938 C 686.824219 384.839844 686.109375 385.554688 685.226562 385.554688 Z M 685.226562 385.554688 " fill-opacity="1" fill-rule="nonzero"/><path fill="#282524" d="M 685.226562 315.324219 C 684.347656 315.324219 683.632812 314.609375 683.632812 313.726562 L 683.632812 281.804688 C 683.632812 280.921875 684.347656 280.207031 685.226562 280.207031 C 686.109375 280.207031 686.824219 280.921875 686.824219 281.804688 L 686.824219 313.726562 C 686.824219 314.609375 686.109375 315.324219 685.226562 315.324219 Z M 685.226562 315.324219 " fill-opacity="1" fill-rule="nonzero"/><path fill="#282524" d="M 685.226562 270.628906 C 684.347656 270.628906 683.632812 269.914062 683.632812 269.035156 L 683.632812 253.074219 C 683.632812 252.191406 684.347656 251.476562 685.226562 251.476562 C 686.109375 251.476562 686.824219 252.191406 686.824219 253.074219 L 686.824219 269.035156 C 686.824219 269.914062 686.109375 270.628906 685.226562 270.628906 Z M 685.226562 270.628906 " fill-opacity="1" fill-rule="nonzero"/><path fill="#fdfcef" d="M 439.414062 441.421875 L 458.570312 441.421875 L 458.570312 438.230469 L 492.886719 438.230469 C 492.886719 438.230469 537.675781 438.230469 553.542969 438.230469 C 569.410156 438.230469 582.273438 425.363281 582.273438 409.5 C 582.273438 393.632812 569.410156 380.765625 553.542969 380.765625 C 552.347656 380.765625 551.21875 380.976562 550.0625 381.117188 C 548.652344 370.136719 539.375 361.613281 528.003906 361.613281 C 521.0625 361.613281 514.945312 364.835938 510.847656 369.796875 C 511.550781 367.167969 512.042969 364.460938 512.042969 361.613281 C 512.042969 343.984375 497.746094 329.691406 480.117188 329.691406 C 463.066406 329.691406 449.261719 343.097656 448.367188 359.925781 C 443.105469 353.222656 435.03125 348.84375 425.847656 348.84375 C 409.980469 348.84375 397.117188 361.707031 397.117188 377.574219 C 397.117188 378.769531 397.328125 379.898438 397.46875 381.054688 C 382.957031 382.496094 371.578125 394.601562 371.578125 409.5 C 371.578125 425.363281 384.441406 438.230469 400.308594 438.230469 C 416.175781 438.230469 439.414062 438.230469 439.414062 438.230469 Z M 439.414062 441.421875 " fill-opacity="1" fill-rule="nonzero"/><path fill="#282524" d="M 480.117188 326.496094 C 463.804688 326.496094 449.988281 337.734375 446.171875 353.082031 C 440.488281 348.308594 433.355469 345.652344 425.847656 345.652344 C 408.246094 345.652344 393.925781 359.972656 393.925781 377.574219 C 393.925781 377.835938 393.929688 378.097656 393.945312 378.359375 C 379.167969 381.324219 368.386719 394.195312 368.386719 409.5 C 368.386719 427.101562 382.707031 441.421875 400.308594 441.421875 L 439.414062 441.421875 C 441.179688 441.421875 442.609375 439.992188 442.609375 438.230469 C 442.609375 436.46875 441.179688 435.039062 439.414062 435.039062 L 400.316406 435.039062 C 386.230469 435.039062 374.777344 423.582031 374.777344 409.5 C 374.777344 396.398438 384.667969 385.535156 397.789062 384.226562 C 398.636719 384.144531 399.421875 383.71875 399.957031 383.046875 C 400.496094 382.375 400.738281 381.519531 400.636719 380.664062 L 400.515625 379.765625 C 400.417969 379.042969 400.308594 378.320312 400.308594 377.574219 C 400.308594 363.492188 411.761719 352.035156 425.847656 352.035156 C 433.644531 352.035156 440.929688 355.628906 445.859375 361.902344 C 446.472656 362.6875 447.402344 363.125 448.359375 363.125 C 448.6875 363.125 449.011719 363.074219 449.332031 362.972656 C 450.601562 362.570312 451.488281 361.429688 451.558594 360.101562 C 452.371094 344.835938 464.921875 332.882812 480.125 332.882812 C 495.964844 332.882812 508.855469 345.773438 508.855469 361.613281 C 508.855469 363.855469 508.511719 366.191406 507.769531 368.976562 C 507.386719 370.425781 508.058594 371.949219 509.390625 372.632812 C 509.851562 372.875 510.351562 372.992188 510.847656 372.992188 C 511.773438 372.992188 512.6875 372.582031 513.3125 371.828125 C 517.003906 367.367188 522.351562 364.804688 528.003906 364.804688 C 537.554688 364.804688 545.675781 371.988281 546.894531 381.519531 C 547.105469 383.128906 548.484375 384.3125 550.058594 384.3125 C 550.191406 384.3125 550.320312 384.304688 550.453125 384.285156 L 551.351562 384.164062 C 552.074219 384.066406 552.796875 383.960938 553.542969 383.960938 C 567.628906 383.960938 579.082031 395.414062 579.082031 409.5 C 579.082031 423.582031 567.628906 435.039062 553.542969 435.039062 L 458.570312 435.039062 C 456.808594 435.039062 455.378906 436.46875 455.378906 438.230469 C 455.378906 439.992188 456.808594 441.421875 458.570312 441.421875 L 553.542969 441.421875 C 571.144531 441.421875 585.464844 427.101562 585.464844 409.5 C 585.464844 391.894531 571.144531 377.574219 553.542969 377.574219 C 553.238281 377.574219 552.9375 377.585938 552.636719 377.605469 C 549.78125 366.472656 539.695312 358.421875 528.003906 358.421875 C 523.472656 358.421875 519.078125 359.652344 515.234375 361.914062 C 515.234375 361.8125 515.234375 361.714844 515.234375 361.613281 C 515.234375 342.25 499.484375 326.496094 480.117188 326.496094 Z M 480.117188 326.496094 " fill-opacity="1" fill-rule="nonzero"/><path fill="#282524" d="M 489.695312 371.191406 C 488.0625 371.191406 486.394531 371.445312 484.480469 371.988281 C 483.628906 372.230469 483.136719 373.113281 483.382812 373.960938 C 483.585938 374.65625 484.210938 375.125 484.90625 375.125 C 485.054688 375.125 485.207031 375.105469 485.355469 375.058594 C 486.996094 374.59375 488.378906 374.375 489.707031 374.375 C 497.933594 374.375 504.886719 380.84375 505.535156 389.09375 C 505.582031 389.699219 505.964844 390.222656 506.527344 390.445312 C 506.71875 390.53125 506.914062 390.566406 507.121094 390.566406 C 507.496094 390.566406 507.871094 390.425781 508.171875 390.164062 C 510.382812 388.21875 513.179688 387.144531 516.03125 387.144531 C 522.632812 387.144531 528.003906 392.515625 528.003906 399.117188 C 528.003906 399.628906 528.246094 400.152344 528.65625 400.453125 C 528.949219 400.667969 529.300781 400.796875 529.652344 400.796875 C 529.792969 400.796875 529.9375 400.777344 530.078125 400.730469 C 531.789062 400.191406 533.328125 399.921875 534.789062 399.921875 C 542.886719 399.921875 549.667969 406.285156 550.234375 414.402344 C 550.292969 415.238281 550.996094 415.882812 551.824219 415.882812 C 551.863281 415.882812 551.902344 415.882812 551.941406 415.882812 C 552.816406 415.820312 553.480469 415.054688 553.421875 414.171875 C 552.738281 404.390625 544.554688 396.730469 534.789062 396.730469 C 533.585938 396.730469 532.351562 396.871094 531.054688 397.164062 C 530.066406 389.6875 523.707031 383.960938 516.03125 383.960938 C 513.3125 383.960938 510.636719 384.71875 508.292969 386.136719 C 506.351562 377.570312 498.652344 371.191406 489.695312 371.191406 Z M 489.695312 371.191406 " fill-opacity="1" fill-rule="nonzero"/><path fill="#282524" d="M 401.054688 380.765625 C 400.167969 380.765625 399.300781 380.871094 398.445312 380.984375 C 397.570312 381.097656 396.957031 381.902344 397.078125 382.777344 C 397.1875 383.578125 397.875 384.164062 398.648438 384.164062 C 398.726562 384.164062 398.796875 384.15625 398.871094 384.144531 C 399.585938 384.050781 400.308594 383.960938 401.054688 383.960938 C 408.105469 383.960938 414.386719 388.734375 416.335938 395.566406 C 416.53125 396.269531 417.171875 396.730469 417.867188 396.730469 C 418.007812 396.730469 418.15625 396.710938 418.308594 396.671875 C 419.15625 396.429688 419.648438 395.546875 419.40625 394.699219 C 417.070312 386.496094 409.523438 380.765625 401.054688 380.765625 Z M 401.054688 380.765625 " fill-opacity="1" fill-rule="nonzero"/></svg>