<svg xmlns="http://www.w3.org/2000/svg" xmlns:xlink="http://www.w3.org/1999/xlink" width="1640" zoomAndPan="magnify" viewBox="0 0 1230 487.499991" height="650" preserveAspectRatio="xMidYMid meet" version="1.0"><defs><g/><clipPath id="fee7ef5ed3"><path d="M 894.4375 123.554688 L 1014.316406 123.554688 L 1014.316406 220 L 894.4375 220 Z M 894.4375 123.554688 " clip-rule="nonzero"/></clipPath><clipPath id="d43d6dd896"><path d="M 6.210938 48.699219 L 453 48.699219 L 453 440.546875 L 6.210938 440.546875 Z M 6.210938 48.699219 " clip-rule="nonzero"/></clipPath><clipPath id="7fe797b874"><path d="M 419 282 L 479.726562 282 L 479.726562 289 L 419 289 Z M 419 282 " clip-rule="nonzero"/></clipPath></defs><g fill="#282524" fill-opacity="1"><g transform="translate(396.142799, 295.001259)"><g><path d="M 124.835938 9.949219 L 124.363281 8.765625 C 120.808594 -2.132812 122.703125 -10.898438 110.859375 -40.269531 C 99.015625 -70.117188 79.355469 -92.855469 53.773438 -112.042969 L 26.058594 -132.179688 C 22.742188 -134.546875 18.714844 -136.441406 17.527344 -140.46875 C 21.320312 -146.15625 39.085938 -151.367188 47.375 -153.972656 C 58.746094 -157.289062 69.644531 -160.367188 81.25 -163.449219 C 94.753906 -166.527344 140.46875 -177.421875 154.445312 -177.421875 C 140.234375 -116.308594 135.023438 -74.617188 127.441406 -14.6875 Z M 9.476562 -142.128906 C 9.476562 -136.207031 12.792969 -133.125 16.34375 -130.519531 L 37.902344 -115.125 C 50.21875 -105.886719 68.457031 -93.332031 78.40625 -80.777344 C 93.566406 -61.589844 103.753906 -45.246094 111.097656 -18.949219 C 116.308594 -0.238281 120.808594 26.292969 120.808594 46.664062 L 116.78125 113.941406 C 118.441406 114.886719 118.914062 116.308594 120.808594 116.308594 C 126.019531 116.308594 125.785156 105.886719 126.257812 101.148438 L 134.074219 24.160156 C 135.023438 17.054688 135.257812 11.371094 136.207031 4.5 C 139.757812 -20.84375 142.128906 -44.535156 146.390625 -70.828125 L 159.183594 -143.074219 C 159.894531 -147.578125 165.34375 -176.710938 166.289062 -178.84375 C 175.054688 -178.84375 180.503906 -179.792969 188.792969 -179.792969 C 206.558594 -179.792969 242.800781 -174.582031 261.515625 -170.082031 C 266.492188 -168.660156 269.808594 -167.710938 271.9375 -167.710938 C 273.832031 -167.710938 274.542969 -168.660156 274.542969 -171.738281 C 274.542969 -181.6875 203.007812 -188.558594 193.53125 -189.503906 C 192.109375 -189.503906 190.925781 -189.503906 189.265625 -189.503906 C 183.820312 -189.503906 177.421875 -189.265625 172.449219 -189.265625 C 171.027344 -189.265625 169.84375 -189.265625 168.660156 -189.265625 C 162.027344 -189.742188 167.238281 -191.636719 160.84375 -191.636719 C 156.816406 -191.636719 160.132812 -188.558594 152.789062 -187.847656 C 114.414062 -183.820312 76.039062 -175.054688 39.558594 -162.5 L 22.03125 -155.15625 C 18.238281 -152.789062 9.476562 -147.578125 9.476562 -142.128906 Z M 9.476562 -142.128906 "/></g></g></g><g fill="#282524" fill-opacity="1"><g transform="translate(552.45824, 295.001259)"><g><path d="M -1.421875 -19.660156 C -1.421875 -12.554688 -0.710938 31.03125 7.816406 31.03125 C 12.316406 31.03125 13.738281 30.082031 15.398438 25.109375 C 18.238281 16.34375 20.136719 6.394531 23.925781 -3.554688 C 26.765625 -10.660156 35.769531 -33.164062 40.269531 -36.480469 C 40.269531 -29.847656 40.507812 -19.1875 41.453125 -13.976562 C 43.113281 -4.265625 46.664062 0 51.640625 0 C 62.773438 0 73.667969 -19.898438 78.40625 -28.425781 C 80.777344 -33.164062 83.855469 -35.769531 82.433594 -41.453125 C 81.488281 -41.691406 80.539062 -41.929688 79.828125 -41.929688 C 77.933594 -41.929688 76.511719 -40.269531 73.667969 -35.296875 C 71.773438 -31.503906 69.878906 -28.1875 67.746094 -24.636719 C 63.722656 -18.949219 58.746094 -9.238281 51.640625 -7.582031 C 48.558594 -13.503906 48.558594 -18.949219 48.558594 -27.953125 C 48.558594 -32.214844 48.558594 -46.664062 43.347656 -46.664062 C 36.242188 -46.664062 34.109375 -41.691406 30.558594 -35.296875 C 20.371094 -16.820312 18.238281 -9.710938 11.84375 9.238281 L 9.949219 13.738281 L 9.238281 -12.792969 C 9.238281 -36.480469 11.605469 -64.429688 15.160156 -86.222656 C 16.34375 -94.277344 19.898438 -105.410156 18.238281 -112.753906 C 16.582031 -112.992188 15.398438 -113.230469 14.449219 -113.230469 C 12.082031 -113.230469 11.371094 -111.570312 9.238281 -105.410156 C 5.449219 -90.25 1.65625 -74.855469 0.949219 -58.984375 C 0.710938 -55.429688 0.238281 -49.980469 0 -46.429688 Z M -1.421875 -19.660156 "/></g></g></g><g fill="#282524" fill-opacity="1"><g transform="translate(624.694929, 295.001259)"><g><path d="M 0 -23.925781 C 0 -15.398438 0.710938 -11.371094 9.476562 -11.371094 C 16.34375 -11.371094 23.6875 -33.636719 28.1875 -36.714844 C 28.1875 -26.53125 35.769531 -14.210938 47.613281 -14.210938 C 51.640625 -14.210938 56.140625 -15.632812 60.878906 -18.949219 L 67.984375 -24.636719 C 80.066406 -36.242188 78.644531 -42.164062 75.089844 -42.164062 C 73.667969 -42.164062 72.011719 -41.453125 70.828125 -39.796875 C 67.511719 -36.242188 66.800781 -34.109375 62.300781 -30.082031 C 57.089844 -24.871094 52.113281 -22.03125 47.613281 -22.03125 C 42.636719 -22.03125 38.375 -25.820312 36.480469 -34.347656 C 34.347656 -43.347656 38.375 -54.007812 30.082031 -54.007812 C 27.003906 -54.007812 17.292969 -33.875 12.554688 -26.53125 L 10.660156 -23.6875 C 9.476562 -22.265625 10.1875 -23.214844 9.476562 -22.503906 C 9.476562 -30.320312 12.792969 -39.320312 15.871094 -44.296875 C 22.742188 -56.140625 27.476562 -59.457031 31.03125 -59.457031 C 35.53125 -59.457031 38.375 -54.007812 41.691406 -54.007812 C 47.851562 -54.007812 41.691406 -67.511719 30.558594 -67.511719 C 13.976562 -67.511719 0 -37.425781 0 -23.925781 Z M 0 -23.925781 "/></g></g></g><g fill="#282524" fill-opacity="1"><g transform="translate(693.379, 295.001259)"><g><path d="M 0 -23.925781 C 0 -15.398438 0.710938 -11.371094 9.476562 -11.371094 C 16.34375 -11.371094 23.6875 -33.636719 28.1875 -36.714844 C 28.1875 -26.53125 35.769531 -14.210938 47.613281 -14.210938 C 51.640625 -14.210938 56.140625 -15.632812 60.878906 -18.949219 L 67.984375 -24.636719 C 80.066406 -36.242188 78.644531 -42.164062 75.089844 -42.164062 C 73.667969 -42.164062 72.011719 -41.453125 70.828125 -39.796875 C 67.511719 -36.242188 66.800781 -34.109375 62.300781 -30.082031 C 57.089844 -24.871094 52.113281 -22.03125 47.613281 -22.03125 C 42.636719 -22.03125 38.375 -25.820312 36.480469 -34.347656 C 34.347656 -43.347656 38.375 -54.007812 30.082031 -54.007812 C 27.003906 -54.007812 17.292969 -33.875 12.554688 -26.53125 L 10.660156 -23.6875 C 9.476562 -22.265625 10.1875 -23.214844 9.476562 -22.503906 C 9.476562 -30.320312 12.792969 -39.320312 15.871094 -44.296875 C 22.742188 -56.140625 27.476562 -59.457031 31.03125 -59.457031 C 35.53125 -59.457031 38.375 -54.007812 41.691406 -54.007812 C 47.851562 -54.007812 41.691406 -67.511719 30.558594 -67.511719 C 13.976562 -67.511719 0 -37.425781 0 -23.925781 Z M 0 -23.925781 "/></g></g></g><g fill="#282524" fill-opacity="1"><g transform="translate(762.06307, 295.001259)"><g><path d="M 0.472656 -18.238281 C 0.472656 -2.84375 0.949219 26.292969 13.738281 26.292969 C 19.660156 26.292969 24.160156 17.292969 26.765625 13.265625 C 31.980469 4.5 38.375 -12.082031 43.347656 -22.265625 C 44.535156 -24.636719 51.875 -38.375 51.875 -39.796875 C 51.875 -40.980469 50.929688 -42.402344 49.746094 -42.402344 C 48.558594 -42.402344 47.140625 -41.453125 45.71875 -38.613281 C 38.136719 -25.109375 31.269531 -8.527344 24.160156 5.210938 C 21.554688 10.660156 18.238281 17.054688 13.027344 19.898438 C 2.367188 -0.472656 15.632812 -74.144531 22.265625 -98.070312 C 22.976562 -100.4375 29.136719 -114.175781 21.320312 -114.175781 C 15.160156 -114.175781 13.027344 -102.332031 10.898438 -95.460938 C 4.972656 -73.667969 0.472656 -41.691406 0.472656 -18.238281 Z M 0.472656 -18.238281 "/></g></g></g><g fill="#282524" fill-opacity="1"><g transform="translate(803.747216, 295.001259)"><g><path d="M 19.660156 0.949219 C 30.792969 0.949219 39.796875 -9.476562 45.480469 -15.398438 C 49.269531 -19.1875 63.484375 -35.058594 63.484375 -39.558594 C 63.484375 -41.691406 62.773438 -42.402344 61.824219 -42.402344 C 57.324219 -42.402344 44.769531 -25.582031 43.824219 -24.398438 C 40.269531 -19.898438 27.953125 -7.34375 20.371094 -7.34375 C 13.976562 -7.34375 11.371094 -21.320312 11.371094 -28.425781 C 11.371094 -52.585938 20.84375 -63.246094 9.949219 -63.246094 C 5.210938 -63.246094 2.84375 -52.585938 2.132812 -47.613281 C -0.472656 -35.53125 0 -19.1875 5.683594 -8.527344 C 8.289062 -4.027344 13.265625 0.949219 19.660156 0.949219 Z M 12.082031 -93.09375 C 12.082031 -87.882812 15.160156 -85.515625 18.476562 -85.515625 C 23.214844 -85.515625 28.1875 -90.726562 23.6875 -99.488281 C 22.265625 -102.09375 20.609375 -103.042969 18.949219 -103.042969 C 15.398438 -103.042969 12.082031 -98.542969 12.082031 -93.09375 Z M 12.082031 -93.09375 "/></g></g></g><g fill="#282524" fill-opacity="1"><g transform="translate(919.08908, 295.001259)"><g><path d="M 0 -32.453125 C 0 -17.527344 6.632812 -3.554688 22.976562 -3.554688 C 39.796875 -3.554688 54.71875 -19.898438 64.429688 -32.214844 C 65.617188 -33.636719 67.273438 -35.769531 67.984375 -37.425781 C 69.40625 -40.507812 68.222656 -43.113281 66.089844 -43.113281 C 64.90625 -43.113281 63.011719 -41.929688 61.351562 -39.558594 C 52.585938 -27.714844 39.558594 -11.371094 23.214844 -11.371094 C 17.527344 -11.371094 14.921875 -14.449219 13.265625 -18.714844 C 7.582031 -30.320312 15.871094 -51.167969 24.160156 -56.851562 C 24.636719 -52.824219 26.53125 -50.691406 28.425781 -50.691406 C 30.082031 -50.691406 31.503906 -52.585938 31.503906 -56.851562 C 31.503906 -63.011719 28.664062 -66.328125 23.925781 -66.328125 C 10.1875 -66.328125 0 -43.585938 0 -32.453125 Z M 0 -32.453125 "/></g></g></g><g fill="#282524" fill-opacity="1"><g transform="translate(976.404728, 295.001259)"><g><path d="M 10.898438 -42.875 C 12.554688 -48.796875 20.371094 -58.035156 26.765625 -59.21875 C 26.058594 -51.640625 16.820312 -45.953125 10.898438 -42.875 Z M 0.238281 -37.191406 C 0.238281 -30.558594 0 -24.636719 5.683594 -18.949219 C 9.710938 -14.921875 14.449219 -13.265625 19.425781 -13.265625 C 33.875 -13.265625 50.21875 -27.714844 58.984375 -36.480469 C 61.113281 -39.085938 61.113281 -39.320312 60.40625 -42.875 C 53.296875 -42.875 57.089844 -41.929688 47.375 -34.347656 C 45.71875 -33.164062 45.007812 -32.214844 43.113281 -30.792969 C 38.375 -27.242188 28.425781 -20.371094 20.136719 -20.371094 C 17.292969 -20.371094 14.449219 -21.320312 12.316406 -23.449219 C 8.289062 -27.476562 8.765625 -31.269531 8.765625 -36.242188 C 16.109375 -36.714844 24.636719 -43.585938 28.425781 -47.851562 C 35.769531 -57.089844 35.769531 -66.5625 25.347656 -66.5625 C 13.976562 -66.5625 0.238281 -49.035156 0.238281 -37.191406 Z M 0.238281 -37.191406 "/></g></g></g><g fill="#282524" fill-opacity="1"><g transform="translate(1027.799344, 295.001259)"><g><path d="M 6.632812 -12.316406 C 15.871094 -12.316406 25.347656 -42.636719 33.164062 -47.851562 C 35.296875 -43.347656 31.980469 -33.875 36.714844 -19.660156 C 38.847656 -13.265625 42.875 -6.871094 50.21875 -6.871094 C 51.640625 -6.871094 53.0625 -7.105469 54.71875 -7.582031 C 60.167969 -9 67.746094 -18.476562 71.0625 -22.742188 C 72.484375 -24.636719 86.460938 -42.164062 77.222656 -42.164062 C 72.960938 -42.164062 60.40625 -13.976562 50.929688 -13.976562 C 42.164062 -13.976562 41.691406 -35.058594 41.691406 -40.980469 L 40.269531 -54.246094 C 39.085938 -56.851562 37.425781 -58.035156 35.769531 -58.035156 C 30.082031 -58.035156 22.976562 -45.953125 21.554688 -43.347656 L 10.1875 -26.058594 C 10.1875 -44.535156 25.582031 -66.800781 15.160156 -66.800781 C 6.160156 -66.800781 -8.527344 -12.316406 6.632812 -12.316406 Z M 6.632812 -12.316406 "/></g></g></g><g fill="#282524" fill-opacity="1"><g transform="translate(1098.851829, 295.001259)"><g><path d="M -66.5625 -105.648438 C -66.5625 -102.332031 -64.195312 -101.621094 -61.589844 -101.621094 C -60.167969 -101.621094 -58.746094 -101.859375 -57.5625 -102.09375 C -55.429688 -106.597656 -57.800781 -105.648438 -51.875 -108.015625 C -49.035156 -109.203125 -46.902344 -110.859375 -44.058594 -112.042969 C -29.375 -117.730469 -15.871094 -121.757812 -0.238281 -125.546875 C 2.132812 -126.257812 7.582031 -127.203125 9 -127.679688 L 6.871094 -105.648438 C 6.632812 -102.570312 6.394531 -97.359375 5.921875 -94.277344 C 4.738281 -87.410156 4.5 -55.429688 4.5 -46.429688 L 3.789062 -35.296875 C 3.789062 -18.003906 3.078125 10.1875 4.5 27.242188 C 4.5 32.925781 4.738281 41.453125 10.898438 41.453125 C 17.054688 41.453125 13.503906 25.109375 13.503906 19.660156 C 13.027344 9.238281 13.265625 -38.136719 13.976562 -45.246094 C 14.449219 -50.21875 13.976562 -60.878906 13.976562 -67.746094 C 13.976562 -71.0625 14.6875 -71.0625 14.6875 -74.144531 C 14.6875 -76.511719 14.449219 -79.355469 14.6875 -81.488281 L 19.425781 -130.046875 C 25.109375 -131.230469 61.113281 -138.101562 74.144531 -138.101562 C 75.800781 -138.101562 76.984375 -138.101562 77.933594 -137.863281 C 80.777344 -137.152344 80.066406 -138.101562 80.777344 -135.734375 C 89.777344 -135.734375 86.933594 -145.207031 75.800781 -145.207031 C 61.351562 -145.207031 47.375 -142.839844 33.636719 -140.234375 C 30.082031 -139.757812 25.109375 -138.339844 21.320312 -138.339844 C 21.320312 -145.917969 26.058594 -139.757812 26.058594 -145.917969 C 26.058594 -147.339844 25.820312 -148.289062 25.820312 -148.996094 C 25.582031 -151.367188 26.058594 -149.472656 26.058594 -152.3125 C 26.058594 -156.105469 24.160156 -159.183594 21.554688 -159.183594 C 18.476562 -159.183594 14.6875 -154.917969 12.316406 -142.128906 C 10.660156 -134.074219 11.371094 -136.207031 1.421875 -133.601562 C -12.082031 -129.808594 -66.5625 -116.308594 -66.5625 -105.648438 Z M -66.5625 -105.648438 "/></g></g></g><g fill="#282524" fill-opacity="1"><g transform="translate(1126.325447, 295.001259)"><g><path d="M 10.898438 -42.875 C 12.554688 -48.796875 20.371094 -58.035156 26.765625 -59.21875 C 26.058594 -51.640625 16.820312 -45.953125 10.898438 -42.875 Z M 0.238281 -37.191406 C 0.238281 -30.558594 0 -24.636719 5.683594 -18.949219 C 9.710938 -14.921875 14.449219 -13.265625 19.425781 -13.265625 C 33.875 -13.265625 50.21875 -27.714844 58.984375 -36.480469 C 61.113281 -39.085938 61.113281 -39.320312 60.40625 -42.875 C 53.296875 -42.875 57.089844 -41.929688 47.375 -34.347656 C 45.71875 -33.164062 45.007812 -32.214844 43.113281 -30.792969 C 38.375 -27.242188 28.425781 -20.371094 20.136719 -20.371094 C 17.292969 -20.371094 14.449219 -21.320312 12.316406 -23.449219 C 8.289062 -27.476562 8.765625 -31.269531 8.765625 -36.242188 C 16.109375 -36.714844 24.636719 -43.585938 28.425781 -47.851562 C 35.769531 -57.089844 35.769531 -66.5625 25.347656 -66.5625 C 13.976562 -66.5625 0.238281 -49.035156 0.238281 -37.191406 Z M 0.238281 -37.191406 "/></g></g></g><g fill="#282524" fill-opacity="1"><g transform="translate(1177.720064, 295.001259)"><g><path d="M 3.316406 -0.949219 C 10.660156 -0.949219 7.816406 -9 9.238281 -15.160156 C 10.1875 -20.84375 12.316406 -25.582031 14.6875 -29.609375 C 18.476562 -35.769531 19.660156 -35.769531 28.664062 -35.769531 C 31.269531 -35.769531 34.820312 -35.53125 37.902344 -35.53125 C 42.636719 -35.53125 46.429688 -36.003906 46.429688 -39.320312 C 46.429688 -42.402344 39.085938 -42.875 32.214844 -42.875 C 28.1875 -42.875 24.160156 -42.636719 22.03125 -42.636719 C 14.6875 -42.636719 13.265625 -38.136719 9.710938 -35.769531 C 9.710938 -38.847656 10.1875 -38.613281 10.1875 -41.929688 C 10.1875 -44.296875 10.1875 -47.140625 10.421875 -49.507812 C 11.132812 -56.140625 12.316406 -60.640625 5.921875 -60.640625 C 0.710938 -60.640625 0.238281 -36.003906 0.238281 -31.742188 C 0.472656 -25.820312 0.238281 -19.898438 0.472656 -14.210938 C 0.472656 -12.554688 -1.421875 -0.949219 3.316406 -0.949219 Z M 3.316406 -0.949219 "/></g></g></g><g fill="#282524" fill-opacity="1"><g transform="translate(590.528781, 390.729587)"><g><path d="M 7.109375 0 L 7.109375 -51.796875 L 36.953125 -51.796875 L 36.953125 -46.265625 L 13.65625 -46.265625 L 13.65625 -28.734375 L 33.390625 -28.734375 L 33.390625 -23.21875 L 13.65625 -23.21875 L 13.65625 0 Z M 7.109375 0 "/></g></g></g><g fill="#282524" fill-opacity="1"><g transform="translate(629.528577, 390.729587)"><g><path d="M 6.46875 0 L 6.46875 -38.375 L 12.953125 -38.375 L 12.953125 0 Z M 9.796875 -46.265625 C 8.523438 -46.265625 7.457031 -46.660156 6.59375 -47.453125 C 5.726562 -48.242188 5.296875 -49.242188 5.296875 -50.453125 C 5.296875 -51.710938 5.726562 -52.722656 6.59375 -53.484375 C 7.457031 -54.253906 8.523438 -54.640625 9.796875 -54.640625 C 11.054688 -54.640625 12.117188 -54.253906 12.984375 -53.484375 C 13.859375 -52.722656 14.296875 -51.710938 14.296875 -50.453125 C 14.296875 -49.242188 13.859375 -48.242188 12.984375 -47.453125 C 12.117188 -46.660156 11.054688 -46.265625 9.796875 -46.265625 Z M 9.796875 -46.265625 "/></g></g></g><g fill="#282524" fill-opacity="1"><g transform="translate(648.949518, 390.729587)"><g><path d="M 13.34375 0.953125 C 10.863281 0.953125 9.097656 0.21875 8.046875 -1.25 C 6.992188 -2.726562 6.46875 -4.890625 6.46875 -7.734375 L 6.46875 -56.21875 L 12.953125 -56.21875 L 12.953125 -7.265625 C 12.953125 -6.210938 13.132812 -5.472656 13.5 -5.046875 C 13.863281 -4.628906 14.285156 -4.421875 14.765625 -4.421875 C 14.972656 -4.421875 15.164062 -4.421875 15.34375 -4.421875 C 15.53125 -4.421875 15.8125 -4.472656 16.1875 -4.578125 L 17.046875 0.3125 C 16.628906 0.519531 16.128906 0.675781 15.546875 0.78125 C 14.972656 0.894531 14.238281 0.953125 13.34375 0.953125 Z M 13.34375 0.953125 "/></g></g></g><g fill="#282524" fill-opacity="1"><g transform="translate(669.080972, 390.729587)"><g><path d="M 13.34375 0.953125 C 10.863281 0.953125 9.097656 0.21875 8.046875 -1.25 C 6.992188 -2.726562 6.46875 -4.890625 6.46875 -7.734375 L 6.46875 -56.21875 L 12.953125 -56.21875 L 12.953125 -7.265625 C 12.953125 -6.210938 13.132812 -5.472656 13.5 -5.046875 C 13.863281 -4.628906 14.285156 -4.421875 14.765625 -4.421875 C 14.972656 -4.421875 15.164062 -4.421875 15.34375 -4.421875 C 15.53125 -4.421875 15.8125 -4.472656 16.1875 -4.578125 L 17.046875 0.3125 C 16.628906 0.519531 16.128906 0.675781 15.546875 0.78125 C 14.972656 0.894531 14.238281 0.953125 13.34375 0.953125 Z M 13.34375 0.953125 "/></g></g></g><g fill="#282524" fill-opacity="1"><g transform="translate(689.212425, 390.729587)"><g><path d="M 22.03125 0.953125 C 19.445312 0.953125 17.035156 0.492188 14.796875 -0.421875 C 12.566406 -1.347656 10.617188 -2.664062 8.953125 -4.375 C 7.296875 -6.09375 5.992188 -8.1875 5.046875 -10.65625 C 4.097656 -13.132812 3.625 -15.953125 3.625 -19.109375 C 3.625 -22.265625 4.109375 -25.09375 5.078125 -27.59375 C 6.054688 -30.09375 7.347656 -32.210938 8.953125 -33.953125 C 10.566406 -35.691406 12.398438 -37.019531 14.453125 -37.9375 C 16.503906 -38.851562 18.632812 -39.3125 20.84375 -39.3125 C 23.257812 -39.3125 25.425781 -38.890625 27.34375 -38.046875 C 29.269531 -37.210938 30.878906 -36.003906 32.171875 -34.421875 C 33.460938 -32.847656 34.445312 -30.953125 35.125 -28.734375 C 35.8125 -26.523438 36.15625 -24.050781 36.15625 -21.3125 C 36.15625 -20.632812 36.140625 -19.960938 36.109375 -19.296875 C 36.085938 -18.640625 36.023438 -18.078125 35.921875 -17.609375 L 10.03125 -17.609375 C 10.289062 -13.503906 11.566406 -10.253906 13.859375 -7.859375 C 16.148438 -5.460938 19.132812 -4.265625 22.8125 -4.265625 C 24.65625 -4.265625 26.351562 -4.539062 27.90625 -5.09375 C 29.457031 -5.644531 30.945312 -6.367188 32.375 -7.265625 L 34.65625 -3 C 32.976562 -1.945312 31.109375 -1.023438 29.046875 -0.234375 C 26.992188 0.554688 24.65625 0.953125 22.03125 0.953125 Z M 9.953125 -22.265625 L 30.46875 -22.265625 C 30.46875 -26.160156 29.640625 -29.117188 27.984375 -31.140625 C 26.328125 -33.171875 24 -34.1875 21 -34.1875 C 19.632812 -34.1875 18.332031 -33.921875 17.09375 -33.390625 C 15.851562 -32.867188 14.734375 -32.09375 13.734375 -31.0625 C 12.734375 -30.039062 11.90625 -28.789062 11.25 -27.3125 C 10.59375 -25.84375 10.160156 -24.160156 9.953125 -22.265625 Z M 9.953125 -22.265625 "/></g></g></g><g fill="#282524" fill-opacity="1"><g transform="translate(728.370084, 390.729587)"><g><path d="M 19.578125 0.953125 C 14.734375 0.953125 10.875 -0.78125 8 -4.25 C 5.132812 -7.726562 3.703125 -12.679688 3.703125 -19.109375 C 3.703125 -22.210938 4.160156 -25.015625 5.078125 -27.515625 C 6.003906 -30.015625 7.226562 -32.128906 8.75 -33.859375 C 10.28125 -35.597656 12.046875 -36.941406 14.046875 -37.890625 C 16.046875 -38.835938 18.15625 -39.3125 20.375 -39.3125 C 22.582031 -39.3125 24.5 -38.914062 26.125 -38.125 C 27.757812 -37.34375 29.421875 -36.265625 31.109375 -34.890625 L 30.796875 -41.453125 L 30.796875 -56.21875 L 37.34375 -56.21875 L 37.34375 0 L 31.96875 0 L 31.421875 -4.5 L 31.1875 -4.5 C 29.65625 -3.03125 27.898438 -1.753906 25.921875 -0.671875 C 23.953125 0.410156 21.835938 0.953125 19.578125 0.953125 Z M 21 -4.5 C 22.789062 -4.5 24.472656 -4.929688 26.046875 -5.796875 C 27.628906 -6.671875 29.210938 -8.003906 30.796875 -9.796875 L 30.796875 -29.84375 C 29.160156 -31.320312 27.59375 -32.363281 26.09375 -32.96875 C 24.59375 -33.570312 23.050781 -33.875 21.46875 -33.875 C 19.945312 -33.875 18.515625 -33.515625 17.171875 -32.796875 C 15.828125 -32.085938 14.65625 -31.085938 13.65625 -29.796875 C 12.65625 -28.515625 11.863281 -26.976562 11.28125 -25.1875 C 10.707031 -23.394531 10.421875 -21.394531 10.421875 -19.1875 C 10.421875 -14.550781 11.34375 -10.941406 13.1875 -8.359375 C 15.03125 -5.785156 17.632812 -4.5 21 -4.5 Z M 21 -4.5 "/></g></g></g><g fill="#282524" fill-opacity="1"><g transform="translate(772.18561, 390.729587)"><g/></g></g><g fill="#282524" fill-opacity="1"><g transform="translate(787.974974, 390.729587)"><g><path d="M 12.546875 0 L 1.890625 -38.375 L 8.53125 -38.375 L 14.21875 -16.1875 C 14.632812 -14.34375 15.023438 -12.550781 15.390625 -10.8125 C 15.765625 -9.082031 16.132812 -7.320312 16.5 -5.53125 L 16.8125 -5.53125 C 17.238281 -7.320312 17.660156 -9.097656 18.078125 -10.859375 C 18.503906 -12.617188 18.953125 -14.394531 19.421875 -16.1875 L 25.34375 -38.375 L 31.65625 -38.375 L 37.65625 -16.1875 C 38.132812 -14.34375 38.597656 -12.550781 39.046875 -10.8125 C 39.492188 -9.082031 39.925781 -7.320312 40.34375 -5.53125 L 40.65625 -5.53125 C 41.082031 -7.320312 41.476562 -9.082031 41.84375 -10.8125 C 42.207031 -12.550781 42.601562 -14.34375 43.03125 -16.1875 L 48.640625 -38.375 L 54.796875 -38.375 L 44.53125 0 L 36.640625 0 L 31.109375 -20.609375 C 30.628906 -22.453125 30.191406 -24.265625 29.796875 -26.046875 C 29.410156 -27.835938 28.976562 -29.707031 28.5 -31.65625 L 28.1875 -31.65625 C 27.757812 -29.707031 27.335938 -27.828125 26.921875 -26.015625 C 26.503906 -24.203125 26.03125 -22.375 25.5 -20.53125 L 20.140625 0 Z M 12.546875 0 "/></g></g></g><g fill="#282524" fill-opacity="1"><g transform="translate(844.658854, 390.729587)"><g><path d="M 6.46875 0 L 6.46875 -38.375 L 12.953125 -38.375 L 12.953125 0 Z M 9.796875 -46.265625 C 8.523438 -46.265625 7.457031 -46.660156 6.59375 -47.453125 C 5.726562 -48.242188 5.296875 -49.242188 5.296875 -50.453125 C 5.296875 -51.710938 5.726562 -52.722656 6.59375 -53.484375 C 7.457031 -54.253906 8.523438 -54.640625 9.796875 -54.640625 C 11.054688 -54.640625 12.117188 -54.253906 12.984375 -53.484375 C 13.859375 -52.722656 14.296875 -51.710938 14.296875 -50.453125 C 14.296875 -49.242188 13.859375 -48.242188 12.984375 -47.453125 C 12.117188 -46.660156 11.054688 -46.265625 9.796875 -46.265625 Z M 9.796875 -46.265625 "/></g></g></g><g fill="#282524" fill-opacity="1"><g transform="translate(864.079794, 390.729587)"><g><path d="M 18.546875 0.953125 C 16.492188 0.953125 14.769531 0.632812 13.375 0 C 11.988281 -0.632812 10.859375 -1.503906 9.984375 -2.609375 C 9.117188 -3.710938 8.5 -5.050781 8.125 -6.625 C 7.757812 -8.207031 7.578125 -9.945312 7.578125 -11.84375 L 7.578125 -33.078125 L 1.890625 -33.078125 L 1.890625 -37.96875 L 7.890625 -38.375 L 8.6875 -49.109375 L 14.125 -49.109375 L 14.125 -38.375 L 24.46875 -38.375 L 24.46875 -33.078125 L 14.125 -33.078125 L 14.125 -11.765625 C 14.125 -9.398438 14.554688 -7.570312 15.421875 -6.28125 C 16.296875 -4.988281 17.835938 -4.34375 20.046875 -4.34375 C 20.734375 -4.34375 21.472656 -4.445312 22.265625 -4.65625 C 23.054688 -4.863281 23.765625 -5.101562 24.390625 -5.375 L 25.65625 -0.46875 C 24.601562 -0.101562 23.457031 0.222656 22.21875 0.515625 C 20.988281 0.804688 19.765625 0.953125 18.546875 0.953125 Z M 18.546875 0.953125 "/></g></g></g><g fill="#282524" fill-opacity="1"><g transform="translate(890.763834, 390.729587)"><g><path d="M 6.46875 0 L 6.46875 -56.21875 L 12.953125 -56.21875 L 12.953125 -40.890625 L 12.71875 -33 C 14.550781 -34.738281 16.46875 -36.222656 18.46875 -37.453125 C 20.46875 -38.691406 22.8125 -39.3125 25.5 -39.3125 C 29.550781 -39.3125 32.507812 -38.046875 34.375 -35.515625 C 36.25 -32.992188 37.1875 -29.257812 37.1875 -24.3125 L 37.1875 0 L 30.71875 0 L 30.71875 -23.453125 C 30.71875 -27.078125 30.132812 -29.691406 28.96875 -31.296875 C 27.8125 -32.910156 25.972656 -33.71875 23.453125 -33.71875 C 21.453125 -33.71875 19.6875 -33.21875 18.15625 -32.21875 C 16.632812 -31.21875 14.898438 -29.742188 12.953125 -27.796875 L 12.953125 0 Z M 6.46875 0 "/></g></g></g><g fill="#282524" fill-opacity="1"><g transform="translate(933.710985, 390.729587)"><g/></g></g><g fill="#282524" fill-opacity="1"><g transform="translate(949.500349, 390.729587)"><g><path d="M 13.34375 0.953125 C 10.863281 0.953125 9.097656 0.21875 8.046875 -1.25 C 6.992188 -2.726562 6.46875 -4.890625 6.46875 -7.734375 L 6.46875 -56.21875 L 12.953125 -56.21875 L 12.953125 -7.265625 C 12.953125 -6.210938 13.132812 -5.472656 13.5 -5.046875 C 13.863281 -4.628906 14.285156 -4.421875 14.765625 -4.421875 C 14.972656 -4.421875 15.164062 -4.421875 15.34375 -4.421875 C 15.53125 -4.421875 15.8125 -4.472656 16.1875 -4.578125 L 17.046875 0.3125 C 16.628906 0.519531 16.128906 0.675781 15.546875 0.78125 C 14.972656 0.894531 14.238281 0.953125 13.34375 0.953125 Z M 13.34375 0.953125 "/></g></g></g><g fill="#282524" fill-opacity="1"><g transform="translate(969.631803, 390.729587)"><g><path d="M 21.390625 0.953125 C 19.023438 0.953125 16.773438 0.503906 14.640625 -0.390625 C 12.515625 -1.285156 10.632812 -2.585938 9 -4.296875 C 7.363281 -6.015625 6.054688 -8.125 5.078125 -10.625 C 4.109375 -13.125 3.625 -15.953125 3.625 -19.109375 C 3.625 -22.316406 4.109375 -25.171875 5.078125 -27.671875 C 6.054688 -30.171875 7.363281 -32.289062 9 -34.03125 C 10.632812 -35.769531 12.515625 -37.082031 14.640625 -37.96875 C 16.773438 -38.863281 19.023438 -39.3125 21.390625 -39.3125 C 23.765625 -39.3125 26.015625 -38.863281 28.140625 -37.96875 C 30.273438 -37.082031 32.15625 -35.769531 33.78125 -34.03125 C 35.414062 -32.289062 36.71875 -30.171875 37.6875 -27.671875 C 38.664062 -25.171875 39.15625 -22.316406 39.15625 -19.109375 C 39.15625 -15.953125 38.664062 -13.125 37.6875 -10.625 C 36.71875 -8.125 35.414062 -6.015625 33.78125 -4.296875 C 32.15625 -2.585938 30.273438 -1.285156 28.140625 -0.390625 C 26.015625 0.503906 23.765625 0.953125 21.390625 0.953125 Z M 21.390625 -4.421875 C 23.023438 -4.421875 24.523438 -4.773438 25.890625 -5.484375 C 27.265625 -6.191406 28.4375 -7.191406 29.40625 -8.484375 C 30.382812 -9.773438 31.132812 -11.316406 31.65625 -13.109375 C 32.1875 -14.898438 32.453125 -16.898438 32.453125 -19.109375 C 32.453125 -21.316406 32.1875 -23.328125 31.65625 -25.140625 C 31.132812 -26.960938 30.382812 -28.53125 29.40625 -29.84375 C 28.4375 -31.15625 27.265625 -32.164062 25.890625 -32.875 C 24.523438 -33.59375 23.023438 -33.953125 21.390625 -33.953125 C 19.765625 -33.953125 18.265625 -33.59375 16.890625 -32.875 C 15.523438 -32.164062 14.351562 -31.15625 13.375 -29.84375 C 12.40625 -28.53125 11.65625 -26.960938 11.125 -25.140625 C 10.601562 -23.328125 10.34375 -21.316406 10.34375 -19.109375 C 10.34375 -16.898438 10.601562 -14.898438 11.125 -13.109375 C 11.65625 -11.316406 12.40625 -9.773438 13.375 -8.484375 C 14.351562 -7.191406 15.523438 -6.191406 16.890625 -5.484375 C 18.265625 -4.773438 19.765625 -4.421875 21.390625 -4.421875 Z M 21.390625 -4.421875 "/></g></g></g><g fill="#282524" fill-opacity="1"><g transform="translate(1012.421038, 390.729587)"><g><path d="M 14.765625 0 L 0.953125 -38.375 L 7.65625 -38.375 L 14.921875 -16.578125 C 15.503906 -14.679688 16.097656 -12.785156 16.703125 -10.890625 C 17.304688 -8.992188 17.894531 -7.128906 18.46875 -5.296875 L 18.796875 -5.296875 C 19.367188 -7.128906 19.941406 -8.992188 20.515625 -10.890625 C 21.097656 -12.785156 21.679688 -14.679688 22.265625 -16.578125 L 29.53125 -38.375 L 35.921875 -38.375 L 22.34375 0 Z M 14.765625 0 "/></g></g></g><g fill="#282524" fill-opacity="1"><g transform="translate(1049.289242, 390.729587)"><g><path d="M 22.03125 0.953125 C 19.445312 0.953125 17.035156 0.492188 14.796875 -0.421875 C 12.566406 -1.347656 10.617188 -2.664062 8.953125 -4.375 C 7.296875 -6.09375 5.992188 -8.1875 5.046875 -10.65625 C 4.097656 -13.132812 3.625 -15.953125 3.625 -19.109375 C 3.625 -22.265625 4.109375 -25.09375 5.078125 -27.59375 C 6.054688 -30.09375 7.347656 -32.210938 8.953125 -33.953125 C 10.566406 -35.691406 12.398438 -37.019531 14.453125 -37.9375 C 16.503906 -38.851562 18.632812 -39.3125 20.84375 -39.3125 C 23.257812 -39.3125 25.425781 -38.890625 27.34375 -38.046875 C 29.269531 -37.210938 30.878906 -36.003906 32.171875 -34.421875 C 33.460938 -32.847656 34.445312 -30.953125 35.125 -28.734375 C 35.8125 -26.523438 36.15625 -24.050781 36.15625 -21.3125 C 36.15625 -20.632812 36.140625 -19.960938 36.109375 -19.296875 C 36.085938 -18.640625 36.023438 -18.078125 35.921875 -17.609375 L 10.03125 -17.609375 C 10.289062 -13.503906 11.566406 -10.253906 13.859375 -7.859375 C 16.148438 -5.460938 19.132812 -4.265625 22.8125 -4.265625 C 24.65625 -4.265625 26.351562 -4.539062 27.90625 -5.09375 C 29.457031 -5.644531 30.945312 -6.367188 32.375 -7.265625 L 34.65625 -3 C 32.976562 -1.945312 31.109375 -1.023438 29.046875 -0.234375 C 26.992188 0.554688 24.65625 0.953125 22.03125 0.953125 Z M 9.953125 -22.265625 L 30.46875 -22.265625 C 30.46875 -26.160156 29.640625 -29.117188 27.984375 -31.140625 C 26.328125 -33.171875 24 -34.1875 21 -34.1875 C 19.632812 -34.1875 18.332031 -33.921875 17.09375 -33.390625 C 15.851562 -32.867188 14.734375 -32.09375 13.734375 -31.0625 C 12.734375 -30.039062 11.90625 -28.789062 11.25 -27.3125 C 10.59375 -25.84375 10.160156 -24.160156 9.953125 -22.265625 Z M 9.953125 -22.265625 "/></g></g></g><path fill="#f6f5f4" d="M 955.234375 146.851562 C 956.113281 146.851562 956.113281 145.472656 955.234375 145.472656 C 954.355469 145.472656 954.355469 146.851562 955.234375 146.851562 Z M 955.234375 146.851562 " fill-opacity="1" fill-rule="nonzero"/><g clip-path="url(#fee7ef5ed3)"><path fill="#282524" d="M 898.339844 142.101562 C 899.074219 140.488281 899.921875 138.84375 901.039062 137.234375 C 902.125 135.621094 903.414062 133.976562 905.113281 132.394531 C 905.964844 131.601562 906.933594 130.808594 908.019531 130.078125 C 908.488281 129.753906 908.898438 129.492188 909.367188 129.195312 C 909.808594 128.902344 910.277344 128.640625 910.746094 128.375 C 912.621094 127.289062 914.675781 126.292969 916.960938 125.472656 C 919.21875 124.652344 921.714844 124.035156 924.234375 123.773438 C 924.878906 123.714844 925.496094 123.652344 926.140625 123.625 C 926.785156 123.59375 927.402344 123.59375 928.019531 123.625 C 929.28125 123.652344 930.480469 123.800781 931.65625 124.007812 C 934 124.417969 936.113281 125.089844 938.019531 125.941406 C 939.894531 126.792969 941.566406 127.761719 943.0625 128.816406 C 943.796875 129.34375 944.53125 129.902344 945.203125 130.457031 C 945.878906 131.015625 946.523438 131.601562 947.109375 132.1875 C 947.726562 132.773438 948.3125 133.363281 948.871094 133.976562 C 949.164062 134.269531 949.425781 134.59375 949.691406 134.886719 L 950.101562 135.355469 L 950.453125 135.796875 C 950.921875 136.351562 951.363281 136.878906 951.832031 137.4375 L 952.535156 138.257812 L 953.269531 139.082031 C 956.875 143.070312 960.777344 147 964.792969 150.898438 C 965.410156 150.753906 966.027344 150.636719 966.671875 150.546875 C 967.492188 150.398438 968.3125 150.3125 969.164062 150.222656 C 969.984375 150.136719 970.835938 150.078125 971.65625 150.046875 C 972.066406 150.019531 972.507812 150.019531 972.917969 150.019531 C 973.328125 150.019531 973.769531 150.019531 974.179688 150.019531 C 977.523438 150.078125 980.925781 150.578125 984.0625 151.660156 C 984.855469 151.925781 985.617188 152.246094 986.378906 152.601562 C 987.140625 152.953125 987.84375 153.363281 988.550781 153.773438 C 989.253906 154.210938 989.898438 154.683594 990.515625 155.179688 C 991.128906 155.679688 991.714844 156.238281 992.246094 156.824219 C 992.507812 157.117188 992.773438 157.410156 993.007812 157.703125 C 993.242188 157.996094 993.476562 158.320312 993.710938 158.640625 C 994.152344 159.257812 994.53125 159.929688 994.882812 160.578125 C 995.148438 161.074219 995.382812 161.601562 995.585938 162.132812 C 996.261719 162.21875 996.90625 162.335938 997.523438 162.484375 C 999.019531 162.804688 1000.484375 163.214844 1001.894531 163.773438 C 1004.707031 164.859375 1007.261719 166.414062 1009.285156 168.40625 C 1010.308594 169.402344 1011.160156 170.488281 1011.894531 171.664062 C 1012.246094 172.25 1012.566406 172.835938 1012.859375 173.421875 C 1013.15625 174.039062 1013.390625 174.652344 1013.59375 175.269531 C 1014.003906 176.5 1014.296875 177.761719 1014.445312 179.023438 C 1014.472656 179.347656 1014.503906 179.640625 1014.53125 179.960938 C 1014.5625 180.285156 1014.5625 180.578125 1014.589844 180.898438 C 1014.589844 181.222656 1014.621094 181.515625 1014.621094 181.839844 L 1014.621094 182.777344 C 1014.5625 184.097656 1014.355469 185.476562 1013.945312 186.941406 C 1013.507812 188.40625 1012.832031 189.933594 1011.777344 191.457031 C 1011.25 192.21875 1010.632812 192.984375 1009.898438 193.6875 C 1009.167969 194.390625 1008.375 195.066406 1007.523438 195.679688 C 1006.671875 196.296875 1005.765625 196.824219 1004.824219 197.265625 C 1003.886719 197.734375 1002.949219 198.085938 1002.011719 198.410156 C 1000.132812 199.054688 998.316406 199.433594 996.554688 199.667969 C 994.824219 199.902344 993.152344 199.992188 991.539062 200.019531 C 990.808594 200.019531 990.074219 199.992188 989.371094 199.960938 C 988.988281 201.632812 988.609375 203.277344 988.226562 204.949219 C 987.816406 206.707031 987.375 208.46875 986.9375 210.226562 C 986.496094 211.988281 986.054688 213.746094 985.585938 215.507812 L 985.351562 216.414062 C 985.089844 217.414062 984.355469 218.351562 983.183594 218.996094 C 980.984375 220.257812 978.136719 219.964844 976.820312 218.351562 C 976.820312 218.351562 976.761719 218.292969 976.730469 218.261719 L 976.640625 218.175781 L 976.4375 218 L 976.027344 217.617188 C 975.761719 217.355469 975.46875 217.117188 975.175781 216.855469 C 974.589844 216.355469 974.003906 215.859375 973.417969 215.359375 C 972.214844 214.363281 970.984375 213.363281 969.75 212.425781 C 967.257812 210.492188 964.617188 208.644531 961.921875 206.855469 C 959.191406 205.066406 956.378906 203.363281 953.445312 201.75 C 950.511719 200.136719 947.433594 198.644531 944.238281 197.207031 C 945.175781 197.292969 946.113281 197.382812 947.050781 197.527344 C 947.519531 197.585938 947.988281 197.675781 948.460938 197.734375 L 949.835938 197.96875 L 950.542969 198.085938 L 951.214844 198.230469 L 952.59375 198.527344 C 953.035156 198.613281 953.503906 198.730469 953.945312 198.847656 C 954.382812 198.964844 954.851562 199.054688 955.292969 199.171875 C 958.871094 200.078125 962.359375 201.222656 965.703125 202.542969 C 969.046875 203.863281 972.300781 205.359375 975.410156 207 C 975.792969 207.207031 976.144531 207.410156 976.523438 207.585938 C 976.582031 207.058594 976.640625 206.5625 976.730469 206.035156 C 976.613281 205.945312 976.496094 205.828125 976.378906 205.738281 C 976.027344 205.445312 975.644531 205.152344 975.265625 204.859375 C 973.769531 203.714844 972.242188 202.601562 970.628906 201.546875 C 969.019531 200.492188 967.347656 199.492188 965.585938 198.554688 C 963.828125 197.644531 961.980469 196.824219 959.957031 196.179688 C 962.183594 196.265625 964.414062 196.5625 966.613281 196.972656 C 968.78125 197.382812 970.925781 197.910156 973.035156 198.496094 C 974.558594 198.9375 976.054688 199.40625 977.523438 199.875 C 977.550781 199.726562 977.550781 199.550781 977.582031 199.40625 C 977.609375 199.113281 977.667969 198.820312 977.699219 198.527344 C 977.082031 197.96875 976.464844 197.382812 975.820312 196.855469 C 974.914062 196.121094 973.972656 195.359375 972.949219 194.714844 C 971.921875 194.039062 970.863281 193.421875 969.632812 192.925781 C 971.070312 192.867188 972.535156 192.984375 973.972656 193.128906 C 975.410156 193.304688 976.820312 193.539062 978.226562 193.832031 C 978.285156 193.832031 978.3125 193.863281 978.371094 193.863281 C 978.402344 193.6875 978.460938 193.480469 978.519531 193.304688 C 979.488281 190.667969 982.859375 188.90625 986.054688 189.375 L 986.644531 189.464844 L 987.289062 189.550781 C 987.550781 189.582031 987.816406 189.609375 988.078125 189.640625 C 988.609375 189.699219 989.136719 189.757812 989.691406 189.785156 C 990.777344 189.875 991.832031 189.875 992.890625 189.84375 C 994.941406 189.816406 996.90625 189.492188 998.226562 189.023438 C 998.902344 188.789062 999.398438 188.523438 999.8125 188.261719 C 1000.015625 188.113281 1000.191406 187.96875 1000.367188 187.820312 C 1000.542969 187.644531 1000.691406 187.46875 1000.835938 187.265625 C 1001.160156 186.855469 1001.421875 186.296875 1001.660156 185.652344 C 1001.863281 185.007812 1002.039062 184.242188 1002.097656 183.453125 L 1002.128906 183.304688 L 1002.128906 183.128906 L 1002.15625 182.804688 C 1002.1875 182.601562 1002.1875 182.367188 1002.1875 182.160156 L 1002.1875 181.515625 C 1002.1875 181.3125 1002.1875 181.105469 1002.15625 180.898438 C 1002.097656 180.078125 1002.011719 179.289062 1001.804688 178.523438 C 1001.628906 177.761719 1001.363281 177.027344 1001.042969 176.355469 C 1000.71875 175.679688 1000.308594 175.035156 999.8125 174.417969 C 999.3125 173.804688 998.753906 173.246094 998.109375 172.71875 C 997.464844 172.191406 996.730469 171.722656 995.941406 171.28125 C 995.148438 170.839844 994.269531 170.488281 993.359375 170.167969 C 992.890625 170.019531 992.421875 169.875 991.953125 169.726562 C 991.714844 169.667969 991.480469 169.609375 991.246094 169.550781 L 990.925781 169.492188 L 990.777344 169.460938 L 990.691406 169.460938 L 990.71875 169.460938 L 986.90625 166.558594 C 986.847656 165.503906 986.730469 164.449219 986.46875 163.449219 C 986.203125 162.453125 985.820312 161.484375 985.324219 160.578125 C 984.296875 158.757812 982.742188 157.117188 980.660156 155.765625 C 979.632812 155.09375 978.460938 154.507812 977.230469 153.976562 C 976.613281 153.714844 975.96875 153.480469 975.292969 153.246094 C 974.617188 153.011719 973.945312 152.804688 973.242188 152.601562 C 972.890625 152.511719 972.535156 152.425781 972.183594 152.335938 C 971.832031 152.246094 971.480469 152.160156 971.101562 152.070312 C 970.367188 151.894531 969.632812 151.777344 968.871094 151.632812 C 967.609375 151.425781 966.347656 151.222656 965.027344 151.105469 C 965.265625 151.339844 965.5 151.574219 965.734375 151.777344 L 969.019531 154.917969 L 972.332031 158.082031 C 974.558594 160.195312 976.761719 162.308594 978.988281 164.476562 C 977.347656 163.921875 975.792969 163.273438 974.238281 162.601562 C 973.476562 162.277344 972.683594 161.925781 971.921875 161.574219 L 969.664062 160.519531 C 966.640625 159.082031 963.738281 157.527344 960.894531 155.914062 C 958.050781 154.269531 955.292969 152.570312 952.625 150.722656 C 949.957031 148.90625 947.375 146.96875 944.910156 144.917969 C 944.296875 144.386719 943.679688 143.890625 943.09375 143.363281 C 942.476562 142.835938 941.890625 142.304688 941.304688 141.75 L 940.484375 141.015625 C 940.21875 140.78125 939.953125 140.546875 939.691406 140.3125 C 939.164062 139.84375 938.636719 139.402344 938.078125 138.992188 C 936.992188 138.140625 935.878906 137.351562 934.734375 136.644531 C 933.589844 135.972656 932.417969 135.355469 931.246094 134.914062 C 930.070312 134.445312 928.929688 134.152344 927.785156 133.976562 C 926.667969 133.800781 925.554688 133.800781 924.441406 133.917969 C 923.328125 134.035156 922.183594 134.328125 920.980469 134.738281 C 920.363281 134.945312 919.777344 135.210938 919.132812 135.503906 C 918.515625 135.796875 917.871094 136.117188 917.253906 136.441406 C 916.933594 136.617188 916.609375 136.792969 916.316406 136.996094 C 915.996094 137.175781 915.671875 137.378906 915.378906 137.585938 C 914.996094 137.820312 914.585938 138.140625 914.148438 138.492188 C 913.296875 139.226562 912.445312 140.195312 911.683594 141.25 C 910.921875 142.304688 910.1875 143.449219 909.542969 144.652344 C 908.898438 145.855469 908.339844 147.117188 907.839844 148.375 C 907.34375 149.667969 906.902344 150.957031 906.550781 152.277344 C 906.171875 153.597656 905.875 154.945312 905.640625 156.265625 C 905.144531 158.964844 904.9375 161.660156 904.9375 164.359375 C 904.96875 168.847656 905.699219 173.304688 907.3125 177.558594 C 907.34375 177.558594 907.371094 177.527344 907.371094 177.527344 C 908.28125 177.234375 909.191406 176.941406 910.101562 176.648438 C 909.984375 175.855469 909.925781 175.09375 909.867188 174.300781 C 909.746094 172.71875 909.71875 171.132812 909.746094 169.550781 C 909.777344 167.96875 909.867188 166.382812 910.042969 164.800781 C 910.21875 163.214844 910.453125 161.660156 910.746094 160.078125 C 911.039062 158.523438 911.417969 156.941406 911.832031 155.386719 L 912.152344 154.210938 C 912.269531 153.832031 912.386719 153.449219 912.535156 153.070312 C 912.769531 152.304688 913.0625 151.542969 913.324219 150.78125 C 914.46875 147.730469 915.878906 144.742188 917.550781 141.835938 C 916.550781 144.859375 915.847656 147.90625 915.4375 150.929688 C 915.347656 151.691406 915.230469 152.425781 915.171875 153.1875 C 915.144531 153.566406 915.113281 153.949219 915.085938 154.300781 L 915.027344 155.414062 C 914.96875 156.910156 914.9375 158.40625 915.027344 159.871094 C 915.085938 161.339844 915.203125 162.804688 915.40625 164.242188 C 915.613281 165.679688 915.847656 167.117188 916.171875 168.523438 C 916.492188 169.933594 916.875 171.308594 917.3125 172.660156 C 917.550781 173.332031 917.785156 174.007812 918.019531 174.652344 C 918.019531 174.683594 918.046875 174.710938 918.046875 174.742188 C 919.160156 174.535156 920.304688 174.390625 921.421875 174.242188 C 921.421875 174.125 921.449219 173.980469 921.449219 173.832031 C 921.539062 172.863281 921.65625 171.898438 921.832031 170.957031 C 922.152344 169.050781 922.5625 167.175781 923.121094 165.328125 L 923.328125 164.625 L 923.5625 163.921875 C 923.707031 163.449219 923.855469 163.011719 924.03125 162.542969 C 924.382812 161.632812 924.703125 160.722656 925.117188 159.8125 C 925.878906 158.023438 926.816406 156.265625 927.785156 154.535156 C 927.492188 156.355469 927.257812 158.144531 927.226562 159.929688 C 927.167969 160.8125 927.199219 161.691406 927.226562 162.570312 C 927.226562 163.011719 927.285156 163.449219 927.285156 163.890625 L 927.316406 164.535156 L 927.375 165.179688 C 927.550781 166.910156 927.84375 168.582031 928.222656 170.226562 C 928.429688 171.046875 928.664062 171.867188 928.898438 172.660156 C 929.015625 172.980469 929.132812 173.332031 929.25 173.65625 L 931.832031 173.65625 C 931.859375 173.394531 931.890625 173.15625 931.917969 172.894531 C 932.066406 171.605469 932.269531 170.34375 932.59375 169.109375 L 932.828125 168.171875 C 932.917969 167.851562 933.003906 167.554688 933.09375 167.234375 C 933.296875 166.617188 933.472656 166.003906 933.707031 165.414062 C 934.117188 164.214844 934.675781 163.011719 935.234375 161.867188 C 935.378906 163.039062 935.527344 164.183594 935.820312 165.296875 C 935.9375 165.855469 936.113281 166.414062 936.289062 166.941406 C 936.375 167.203125 936.464844 167.46875 936.554688 167.761719 L 936.699219 168.171875 L 936.847656 168.554688 C 937.257812 169.609375 937.726562 170.636719 938.253906 171.605469 C 938.519531 172.101562 938.8125 172.570312 939.105469 173.039062 C 939.25 173.273438 939.398438 173.511719 939.574219 173.714844 C 939.660156 173.832031 939.71875 173.921875 939.808594 174.039062 C 939.835938 174.066406 939.867188 174.125 939.894531 174.15625 C 941.070312 174.273438 942.210938 174.417969 943.328125 174.59375 C 946.113281 175.003906 948.839844 175.535156 951.507812 176.179688 C 954.179688 176.792969 956.757812 177.558594 959.28125 178.40625 C 960.542969 178.816406 961.773438 179.257812 963.003906 179.757812 C 964.238281 180.226562 965.410156 180.722656 966.613281 181.253906 C 968.957031 182.308594 971.246094 183.421875 973.359375 184.742188 C 967.992188 183.863281 962.652344 183.160156 957.316406 182.628906 C 954.648438 182.367188 952.007812 182.160156 949.339844 182.015625 C 947.960938 181.925781 946.613281 181.898438 945.261719 181.839844 C 943.972656 181.808594 942.710938 181.78125 941.421875 181.78125 C 938.78125 181.78125 936.171875 181.867188 933.5625 182.015625 C 933.328125 182.042969 933.0625 182.042969 932.828125 182.074219 C 932.417969 182.101562 932.007812 182.132812 931.625 182.160156 L 931.128906 182.191406 L 930.65625 182.25 L 929.691406 182.335938 L 928.722656 182.425781 C 928.398438 182.453125 928.078125 182.511719 927.753906 182.542969 C 927.109375 182.628906 926.492188 182.6875 925.847656 182.804688 L 923.972656 183.101562 L 923.503906 183.1875 L 923.03125 183.277344 L 921.15625 183.628906 C 920.832031 183.6875 920.539062 183.773438 920.246094 183.832031 C 919.632812 183.980469 919.015625 184.125 918.429688 184.273438 L 916.640625 184.769531 L 916.199219 184.890625 C 916.054688 184.917969 915.90625 184.976562 915.761719 185.035156 L 914.878906 185.328125 C 914.734375 185.359375 914.585938 185.417969 914.441406 185.445312 C 914.148438 186.265625 913.824219 187.117188 913.5 187.9375 C 913.5 187.96875 913.472656 187.996094 913.472656 188.027344 L 912.5625 190.429688 L 912.503906 190.546875 L 911.507812 193.070312 C 911.066406 194.183594 910.628906 195.300781 910.1875 196.414062 C 910.21875 196.414062 910.246094 196.414062 910.304688 196.414062 C 911.832031 196.355469 913.324219 196.324219 914.820312 196.324219 C 915.585938 196.324219 916.316406 196.324219 917.078125 196.355469 C 917.84375 196.355469 918.574219 196.414062 919.308594 196.414062 C 920.804688 196.472656 922.269531 196.5625 923.765625 196.679688 C 924.5 196.738281 925.234375 196.796875 925.964844 196.882812 L 927.082031 197 L 928.164062 197.117188 C 929.632812 197.292969 931.070312 197.5 932.503906 197.734375 L 934.648438 198.113281 C 935.351562 198.230469 936.054688 198.410156 936.757812 198.554688 C 939.574219 199.171875 942.332031 199.875 944.96875 200.785156 C 945.292969 200.902344 945.644531 200.988281 945.964844 201.105469 L 947.902344 201.808594 C 948.226562 201.925781 948.546875 202.042969 948.871094 202.191406 C 949.515625 202.457031 950.132812 202.71875 950.746094 202.984375 C 951.070312 203.101562 951.363281 203.246094 951.683594 203.394531 L 952.59375 203.832031 C 953.210938 204.128906 953.796875 204.390625 954.382812 204.742188 L 956.113281 205.679688 C 956.671875 206.003906 957.226562 206.355469 957.785156 206.707031 L 958.605469 207.234375 L 959.398438 207.792969 C 959.925781 208.144531 960.425781 208.527344 960.953125 208.90625 C 961.453125 209.289062 961.949219 209.699219 962.417969 210.082031 L 963.152344 210.667969 C 963.386719 210.871094 963.59375 211.078125 963.828125 211.28125 C 964.265625 211.695312 964.707031 212.132812 965.144531 212.542969 C 964.5 212.308594 963.886719 212.074219 963.269531 211.839844 C 962.945312 211.722656 962.652344 211.605469 962.332031 211.488281 L 961.394531 211.164062 C 960.746094 210.960938 960.132812 210.726562 959.515625 210.519531 C 958.871094 210.316406 958.226562 210.140625 957.609375 209.933594 L 956.671875 209.640625 L 955.703125 209.375 L 953.796875 208.847656 C 952.507812 208.554688 951.246094 208.203125 949.925781 207.941406 L 948.957031 207.734375 C 948.636719 207.675781 948.3125 207.585938 947.988281 207.527344 C 947.34375 207.410156 946.671875 207.292969 946.023438 207.175781 C 945.378906 207.058594 944.707031 206.972656 944.058594 206.855469 L 943.09375 206.707031 C 942.769531 206.648438 942.417969 206.621094 942.09375 206.589844 C 939.457031 206.210938 936.789062 205.976562 934.117188 205.769531 C 931.449219 205.5625 928.75 205.476562 926.054688 205.445312 L 924.03125 205.445312 C 923.355469 205.445312 922.679688 205.445312 922.007812 205.476562 C 921.332031 205.503906 920.65625 205.503906 919.984375 205.535156 C 919.308594 205.5625 918.632812 205.5625 917.960938 205.59375 C 916.609375 205.652344 915.261719 205.710938 913.882812 205.796875 C 913.207031 205.855469 912.535156 205.886719 911.859375 205.945312 L 910.832031 206.035156 L 909.835938 206.121094 C 908.488281 206.238281 907.136719 206.386719 905.816406 206.5625 C 905.144531 206.648438 904.5 206.738281 903.851562 206.824219 C 903.53125 206.855469 903.207031 206.914062 902.886719 206.972656 L 902.417969 207.03125 L 902.210938 207.058594 L 902.035156 207.089844 C 901.242188 207.234375 900.421875 207.265625 899.601562 207.148438 C 896.316406 206.679688 894.4375 204.097656 895.4375 201.371094 L 895.496094 201.195312 C 896.109375 199.523438 896.757812 197.820312 897.402344 196.148438 C 898.046875 194.480469 898.691406 192.808594 899.367188 191.105469 L 900.363281 188.582031 L 901.390625 186.0625 C 901.886719 184.800781 902.417969 183.570312 902.945312 182.308594 C 901.007812 179.960938 899.453125 177.351562 898.222656 174.652344 C 896.960938 171.839844 896.050781 168.875 895.523438 165.855469 C 894.96875 162.835938 894.792969 159.695312 894.96875 156.558594 C 895.054688 154.976562 895.230469 153.390625 895.496094 151.777344 C 895.757812 150.195312 896.140625 148.582031 896.609375 146.96875 C 897.050781 145.355469 897.605469 143.742188 898.339844 142.101562 Z M 898.339844 142.101562 " fill-opacity="1" fill-rule="nonzero"/></g><g clip-path="url(#d43d6dd896)"><path fill="#004aad" d="M 431.785156 281.074219 C 437.960938 269.347656 441.496094 256.019531 441.496094 241.84375 C 441.496094 205.824219 418.871094 175.160156 387.085938 163.074219 C 387.085938 163.035156 387.089844 163 387.089844 162.953125 C 387.089844 99.855469 335.9375 48.699219 272.835938 48.699219 C 219.601562 48.699219 175.007812 85.160156 162.316406 134.429688 C 154.289062 131.789062 145.730469 130.3125 136.816406 130.3125 C 94.96875 130.3125 60.523438 161.828125 55.804688 202.410156 C 27.492188 208.402344 6.242188 233.515625 6.242188 263.609375 C 6.242188 298.160156 34.253906 326.175781 68.808594 326.175781 C 69.773438 326.175781 70.722656 326.109375 71.671875 326.054688 C 71.648438 327.007812 71.527344 327.9375 71.527344 328.898438 C 71.527344 390.496094 121.464844 440.429688 183.0625 440.429688 C 218.085938 440.429688 249.304688 424.261719 269.757812 399.003906 C 281.605469 411.109375 298.082031 418.667969 316.359375 418.667969 C 341.660156 418.667969 363.554688 404.25 374.390625 383.207031 C 380.117188 385.027344 386.203125 386.023438 392.53125 386.023438 C 425.582031 386.023438 452.378906 359.226562 452.378906 326.175781 C 452.378906 308.160156 444.382812 292.046875 431.785156 281.074219 Z M 431.785156 281.074219 " fill-opacity="1" fill-rule="nonzero"/></g><path fill="#282524" d="M 73.734375 217.363281 L 19.84375 217.363281 C 18.339844 217.363281 17.121094 216.144531 17.121094 214.640625 C 17.121094 213.140625 18.339844 211.921875 19.84375 211.921875 L 73.734375 211.921875 C 75.234375 211.921875 76.453125 213.140625 76.453125 214.640625 C 76.453125 216.144531 75.238281 217.363281 73.734375 217.363281 Z M 73.734375 217.363281 " fill-opacity="1" fill-rule="nonzero"/><path fill="#282524" d="M 90.570312 217.363281 L 85.132812 217.363281 C 83.628906 217.363281 82.410156 216.144531 82.410156 214.640625 C 82.410156 213.140625 83.628906 211.921875 85.132812 211.921875 L 90.570312 211.921875 C 92.074219 211.921875 93.292969 213.140625 93.292969 214.640625 C 93.292969 216.144531 92.078125 217.363281 90.570312 217.363281 Z M 90.570312 217.363281 " fill-opacity="1" fill-rule="nonzero"/><path fill="#282524" d="M 117.726562 228.242188 L 68.808594 228.242188 C 67.308594 228.242188 66.089844 227.023438 66.089844 225.523438 C 66.089844 224.019531 67.308594 222.800781 68.808594 222.800781 L 117.726562 222.800781 C 119.226562 222.800781 120.445312 224.019531 120.445312 225.523438 C 120.445312 227.023438 119.226562 228.242188 117.726562 228.242188 Z M 117.726562 228.242188 " fill-opacity="1" fill-rule="nonzero"/><path fill="#282524" d="M 57.925781 228.242188 L 52.488281 228.242188 C 50.984375 228.242188 49.765625 227.023438 49.765625 225.523438 C 49.765625 224.019531 50.984375 222.800781 52.488281 222.800781 L 57.925781 222.800781 C 59.429688 222.800781 60.648438 224.019531 60.648438 225.523438 C 60.648438 227.023438 59.433594 228.242188 57.925781 228.242188 Z M 57.925781 228.242188 " fill-opacity="1" fill-rule="nonzero"/><path fill="#282524" d="M 41.605469 228.242188 L 30.722656 228.242188 C 29.222656 228.242188 28.003906 227.023438 28.003906 225.523438 C 28.003906 224.019531 29.222656 222.800781 30.722656 222.800781 L 41.605469 222.800781 C 43.105469 222.800781 44.324219 224.019531 44.324219 225.523438 C 44.324219 227.023438 43.113281 228.242188 41.605469 228.242188 Z M 41.605469 228.242188 " fill-opacity="1" fill-rule="nonzero"/><path fill="#282524" d="M 74.25 239.125 L 63.367188 239.125 C 61.867188 239.125 60.648438 237.90625 60.648438 236.40625 C 60.648438 234.902344 61.867188 233.683594 63.367188 233.683594 L 74.25 233.683594 C 75.75 233.683594 76.96875 234.902344 76.96875 236.40625 C 76.96875 237.90625 75.75 239.125 74.25 239.125 Z M 74.25 239.125 " fill-opacity="1" fill-rule="nonzero"/><path fill="#282524" d="M 90.570312 190.160156 C 89.609375 190.160156 86.09375 190.160156 85.132812 190.160156 C 83.628906 190.160156 82.410156 191.378906 82.410156 192.878906 C 82.410156 194.378906 83.628906 195.597656 85.132812 195.597656 C 86.09375 195.597656 89.609375 195.597656 90.570312 195.597656 C 92.074219 195.597656 93.292969 194.378906 93.292969 192.878906 C 93.292969 191.378906 92.074219 190.160156 90.570312 190.160156 Z M 90.570312 190.160156 " fill-opacity="1" fill-rule="nonzero"/><path fill="#282524" d="M 90.570312 201.039062 C 89.609375 201.039062 64.332031 201.039062 63.367188 201.039062 C 61.867188 201.039062 60.648438 202.257812 60.648438 203.761719 C 60.648438 205.261719 61.867188 206.480469 63.367188 206.480469 C 64.332031 206.480469 89.609375 206.480469 90.570312 206.480469 C 92.074219 206.480469 93.292969 205.261719 93.292969 203.761719 C 93.292969 202.257812 92.074219 201.039062 90.570312 201.039062 Z M 90.570312 201.039062 " fill-opacity="1" fill-rule="nonzero"/><path fill="#282524" d="M 117.773438 211.921875 C 116.8125 211.921875 102.417969 211.921875 101.453125 211.921875 C 99.953125 211.921875 98.734375 213.140625 98.734375 214.640625 C 98.734375 216.144531 99.953125 217.363281 101.453125 217.363281 C 102.417969 217.363281 116.8125 217.363281 117.773438 217.363281 C 119.277344 217.363281 120.496094 216.144531 120.496094 214.640625 C 120.496094 213.140625 119.277344 211.921875 117.773438 211.921875 Z M 117.773438 211.921875 " fill-opacity="1" fill-rule="nonzero"/><path fill="#282524" d="M 427.894531 277.210938 L 373.488281 277.210938 C 371.988281 277.210938 370.769531 275.992188 370.769531 274.488281 C 370.769531 272.988281 371.988281 271.769531 373.488281 271.769531 L 427.894531 271.769531 C 429.398438 271.769531 430.617188 272.988281 430.617188 274.488281 C 430.617188 275.992188 429.398438 277.210938 427.894531 277.210938 Z M 427.894531 277.210938 " fill-opacity="1" fill-rule="nonzero"/><path fill="#282524" d="M 449.660156 277.210938 L 438.777344 277.210938 C 437.273438 277.210938 436.054688 275.992188 436.054688 274.488281 C 436.054688 272.988281 437.273438 271.769531 438.777344 271.769531 L 449.660156 271.769531 C 451.160156 271.769531 452.378906 272.988281 452.378906 274.488281 C 452.378906 275.992188 451.160156 277.210938 449.660156 277.210938 Z M 449.660156 277.210938 " fill-opacity="1" fill-rule="nonzero"/><g clip-path="url(#7fe797b874)"><path fill="#282524" d="M 476.863281 288.089844 L 422.453125 288.089844 C 420.953125 288.089844 419.734375 286.871094 419.734375 285.371094 C 419.734375 283.871094 420.953125 282.652344 422.453125 282.652344 L 476.863281 282.652344 C 478.363281 282.652344 479.582031 283.871094 479.582031 285.371094 C 479.582031 286.871094 478.367188 288.089844 476.863281 288.089844 Z M 476.863281 288.089844 " fill-opacity="1" fill-rule="nonzero"/></g><path fill="#282524" d="M 411.574219 288.089844 L 406.132812 288.089844 C 404.632812 288.089844 403.414062 286.871094 403.414062 285.371094 C 403.414062 283.871094 404.632812 282.652344 406.132812 282.652344 L 411.574219 282.652344 C 413.074219 282.652344 414.292969 283.871094 414.292969 285.371094 C 414.292969 286.871094 413.074219 288.089844 411.574219 288.089844 Z M 411.574219 288.089844 " fill-opacity="1" fill-rule="nonzero"/><path fill="#282524" d="M 394.570312 288.089844 L 384.371094 288.089844 C 382.867188 288.089844 381.648438 286.871094 381.648438 285.371094 C 381.648438 283.871094 382.867188 282.652344 384.371094 282.652344 L 394.570312 282.652344 C 396.074219 282.652344 397.292969 283.871094 397.292969 285.371094 C 397.292969 286.871094 396.074219 288.089844 394.570312 288.089844 Z M 394.570312 288.089844 " fill-opacity="1" fill-rule="nonzero"/><path fill="#282524" d="M 444.21875 266.328125 L 417.015625 266.328125 C 415.511719 266.328125 414.292969 265.109375 414.292969 263.609375 C 414.292969 262.105469 415.511719 260.886719 417.015625 260.886719 L 444.21875 260.886719 C 445.71875 260.886719 446.9375 262.105469 446.9375 263.609375 C 446.9375 265.109375 445.726562 266.328125 444.21875 266.328125 Z M 444.21875 266.328125 " fill-opacity="1" fill-rule="nonzero"/><path fill="#282524" d="M 427.894531 298.972656 L 417.015625 298.972656 C 415.511719 298.972656 414.292969 297.753906 414.292969 296.253906 C 414.292969 294.75 415.511719 293.53125 417.015625 293.53125 L 427.894531 293.53125 C 429.398438 293.53125 430.617188 294.75 430.617188 296.253906 C 430.617188 297.753906 429.398438 298.972656 427.894531 298.972656 Z M 427.894531 298.972656 " fill-opacity="1" fill-rule="nonzero"/><path fill="#fdfcef" d="M 345.605469 130.3125 L 383.691406 130.3125 L 383.691406 127.589844 C 383.691406 127.589844 413.976562 127.589844 424.496094 127.589844 C 435.011719 127.589844 443.539062 119.066406 443.539062 108.546875 C 443.539062 98.03125 435.011719 89.503906 424.496094 89.503906 C 423.476562 89.503906 422.503906 89.652344 421.53125 89.804688 C 420.386719 83.449219 414.855469 78.625 408.171875 78.625 C 404.957031 78.625 402.035156 79.789062 399.707031 81.660156 C 399.847656 80.660156 400.011719 79.664062 400.011719 78.625 C 400.011719 66.605469 390.269531 56.859375 378.25 56.859375 C 367.785156 56.859375 359.066406 64.246094 356.976562 74.082031 C 353.492188 70.21875 348.5 67.742188 342.882812 67.742188 C 332.367188 67.742188 323.84375 76.269531 323.84375 86.785156 C 323.84375 87.800781 323.988281 88.777344 324.140625 89.75 C 314.78125 90.953125 307.519531 98.859375 307.519531 108.546875 C 307.519531 119.066406 316.046875 127.589844 326.5625 127.589844 C 337.078125 127.589844 345.605469 127.589844 345.605469 127.589844 Z M 345.605469 130.3125 " fill-opacity="1" fill-rule="nonzero"/><path fill="#737373" d="M 334.722656 101.746094 C 334.722656 96.59375 330.527344 92.398438 325.371094 92.398438 C 325.300781 92.390625 321.730469 92.390625 319.316406 93.042969 C 318.589844 93.242188 317.847656 92.8125 317.652344 92.085938 C 317.453125 91.359375 317.882812 90.617188 318.609375 90.417969 C 321.367188 89.675781 325.191406 89.726562 325.375 89.679688 C 332.03125 89.679688 337.445312 95.09375 337.445312 101.746094 C 337.445312 102.496094 336.835938 103.105469 336.082031 103.105469 C 335.332031 103.105469 334.722656 102.496094 334.722656 101.746094 Z M 334.722656 101.746094 " fill-opacity="1" fill-rule="nonzero"/><path fill="#737373" d="M 375.527344 127.589844 C 375.527344 127.949219 375.460938 128.296875 375.320312 128.632812 C 375.183594 128.964844 374.988281 129.257812 374.730469 129.515625 C 374.476562 129.769531 374.183594 129.964844 373.847656 130.105469 C 373.515625 130.242188 373.167969 130.3125 372.808594 130.3125 C 372.449219 130.3125 372.101562 130.242188 371.765625 130.105469 C 371.433594 129.964844 371.140625 129.769531 370.886719 129.515625 C 370.628906 129.257812 370.433594 128.964844 370.296875 128.632812 C 370.15625 128.296875 370.089844 127.949219 370.089844 127.589844 C 370.089844 127.230469 370.15625 126.882812 370.296875 126.550781 C 370.433594 126.214844 370.628906 125.921875 370.886719 125.667969 C 371.140625 125.410156 371.433594 125.214844 371.765625 125.078125 C 372.101562 124.9375 372.449219 124.871094 372.808594 124.871094 C 373.167969 124.871094 373.515625 124.9375 373.847656 125.078125 C 374.183594 125.214844 374.476562 125.410156 374.730469 125.667969 C 374.988281 125.921875 375.183594 126.214844 375.320312 126.550781 C 375.460938 126.882812 375.527344 127.230469 375.527344 127.589844 Z M 375.527344 127.589844 " fill-opacity="1" fill-rule="nonzero"/><path fill="#737373" d="M 304.800781 108.546875 C 304.800781 98.585938 311.660156 89.996094 321.144531 87.558594 C 321.128906 87.300781 321.121094 87.046875 321.121094 86.785156 C 321.121094 74.78125 330.882812 65.023438 342.882812 65.023438 C 347.480469 65.023438 351.953125 66.523438 355.652344 69.234375 C 359.390625 60.273438 368.289062 54.140625 378.25 54.140625 C 391.164062 54.140625 401.773438 64.191406 402.671875 76.882812 C 404.425781 76.234375 406.273438 75.902344 408.171875 75.902344 C 415.1875 75.902344 421.296875 80.363281 423.546875 86.816406 C 423.863281 86.796875 424.175781 86.785156 424.496094 86.785156 C 436.496094 86.785156 446.257812 96.546875 446.257812 108.546875 C 446.257812 120.550781 436.496094 130.3125 424.496094 130.3125 L 383.691406 130.3125 C 382.1875 130.3125 380.96875 129.09375 380.96875 127.589844 C 380.96875 126.089844 382.1875 124.871094 383.691406 124.871094 L 424.496094 124.871094 C 433.492188 124.871094 440.816406 117.546875 440.816406 108.546875 C 440.816406 99.550781 433.492188 92.226562 424.496094 92.226562 C 423.625 92.226562 422.785156 92.363281 421.949219 92.492188 C 420.464844 92.714844 419.113281 91.742188 418.851562 90.289062 C 417.921875 85.105469 413.429688 81.34375 408.171875 81.34375 C 405.730469 81.34375 403.394531 82.1875 401.410156 83.78125 C 400.539062 84.476562 399.359375 84.390625 398.386719 83.835938 C 397.410156 83.28125 396.910156 82.003906 397.070312 80.898438 C 397.175781 80.148438 397.292969 79.402344 397.292969 78.625 C 397.292969 68.125 388.75 59.582031 378.25 59.582031 C 369.320312 59.582031 361.492188 65.917969 359.632812 74.648438 C 359.417969 75.648438 358.664062 76.441406 357.671875 76.707031 C 356.699219 76.980469 355.632812 76.660156 354.953125 75.902344 C 351.789062 72.394531 347.503906 70.460938 342.878906 70.460938 C 333.878906 70.460938 326.558594 77.785156 326.558594 86.785156 C 326.558594 87.65625 326.691406 88.5 326.824219 89.332031 C 326.9375 90.054688 326.753906 90.792969 326.3125 91.382812 C 325.871094 91.96875 325.214844 92.351562 324.484375 92.449219 C 316.359375 93.488281 310.238281 100.410156 310.238281 108.546875 C 310.238281 117.546875 317.5625 124.871094 326.5625 124.871094 L 345.605469 124.871094 C 347.105469 124.871094 348.324219 126.089844 348.324219 127.589844 C 348.324219 129.09375 347.105469 130.3125 345.605469 130.3125 L 326.5625 130.3125 C 314.558594 130.3125 304.800781 120.550781 304.800781 108.546875 Z M 304.800781 108.546875 " fill-opacity="1" fill-rule="nonzero"/><path fill="#737373" d="M 353.765625 127.589844 C 353.765625 129.09375 354.984375 130.3125 356.484375 130.3125 C 357.351562 130.3125 361.0625 130.3125 361.925781 130.3125 C 363.429688 130.3125 364.648438 129.09375 364.648438 127.589844 C 364.648438 126.089844 363.429688 124.871094 361.925781 124.871094 C 361.0625 124.871094 357.351562 124.871094 356.484375 124.871094 C 354.984375 124.871094 353.765625 126.089844 353.765625 127.589844 Z M 353.765625 127.589844 " fill-opacity="1" fill-rule="nonzero"/><path fill="#737373" d="M 335.402344 282.652344 C 333.902344 282.652344 332.683594 281.433594 332.683594 279.929688 L 332.683594 160.234375 C 332.683594 153.65625 328.585938 150.714844 324.523438 150.714844 C 320.457031 150.714844 316.359375 153.65625 316.359375 160.234375 C 316.359375 161.734375 315.140625 162.953125 313.640625 162.953125 C 312.140625 162.953125 310.921875 161.734375 310.921875 160.234375 C 310.921875 140.589844 338.125 140.589844 338.125 160.234375 L 338.125 279.929688 C 338.125 281.433594 336.90625 282.652344 335.402344 282.652344 Z M 335.402344 282.652344 " fill-opacity="1" fill-rule="nonzero"/><path fill="#afaeae" d="M 176.988281 376.773438 C 174.941406 376.773438 173.269531 375.109375 173.269531 373.058594 L 173.269531 194.332031 L 167.828125 194.332031 L 167.828125 166.332031 C 167.828125 163.5625 170.082031 161.316406 172.847656 161.316406 L 318.414062 161.316406 C 321.179688 161.316406 323.429688 163.5625 323.429688 166.332031 L 323.429688 194.332031 L 317.988281 194.332031 L 317.988281 373.058594 C 317.988281 375.109375 316.324219 376.773438 314.273438 376.773438 Z M 176.988281 376.773438 " fill-opacity="1" fill-rule="nonzero"/><path fill="#737373" d="M 318.417969 165.132812 C 319.085938 165.132812 319.625 165.675781 319.625 166.339844 L 319.625 190.527344 L 314.183594 190.527344 L 314.183594 198.144531 L 314.277344 372.964844 L 177.078125 373.058594 L 177.078125 190.527344 L 171.636719 190.527344 L 171.636719 166.339844 C 171.636719 165.667969 172.183594 165.132812 172.847656 165.132812 L 318.417969 165.132812 M 318.417969 157.515625 L 172.847656 157.515625 C 167.972656 157.515625 164.019531 161.464844 164.019531 166.339844 L 164.019531 198.144531 L 169.460938 198.144531 L 169.460938 373.058594 C 169.460938 377.214844 172.828125 380.582031 176.988281 380.582031 L 314.277344 380.582031 C 318.433594 380.582031 321.800781 377.214844 321.800781 373.058594 L 321.800781 198.144531 L 327.242188 198.144531 L 327.242188 166.339844 C 327.242188 161.464844 323.292969 157.515625 318.417969 157.515625 Z M 318.417969 157.515625 " fill-opacity="1" fill-rule="nonzero"/><path fill="#737373" d="M 289.15625 162.953125 L 272.835938 162.953125 C 269.828125 162.953125 267.394531 160.523438 267.394531 157.515625 C 267.394531 154.503906 269.828125 152.074219 272.835938 152.074219 L 283.714844 152.074219 L 283.714844 146.457031 C 283.714844 132.4375 266.988281 124.871094 251.246094 124.871094 L 240.015625 124.871094 C 224.277344 124.871094 207.546875 132.4375 207.546875 146.457031 L 207.546875 152.074219 L 218.429688 152.074219 C 221.429688 152.074219 223.867188 154.503906 223.867188 157.515625 C 223.867188 160.523438 221.429688 162.953125 218.429688 162.953125 L 202.105469 162.953125 C 199.101562 162.953125 196.664062 160.523438 196.664062 157.515625 L 196.664062 146.457031 C 196.664062 125.371094 219 113.988281 240.015625 113.988281 L 251.246094 113.988281 C 272.265625 113.988281 294.597656 125.371094 294.597656 146.457031 L 294.597656 157.515625 C 294.597656 160.523438 292.167969 162.953125 289.15625 162.953125 Z M 289.15625 162.953125 " fill-opacity="1" fill-rule="nonzero"/><path fill="#737373" d="M 316.359375 318.015625 L 229.308594 318.015625 C 227.808594 318.015625 226.589844 316.796875 226.589844 315.292969 C 226.589844 313.792969 227.808594 312.574219 229.308594 312.574219 L 316.359375 312.574219 C 317.863281 312.574219 319.082031 313.792969 319.082031 315.292969 C 319.082031 316.796875 317.863281 318.015625 316.359375 318.015625 Z M 316.359375 318.015625 " fill-opacity="1" fill-rule="nonzero"/><path fill="#737373" d="M 202.105469 318.015625 L 174.902344 318.015625 C 173.402344 318.015625 172.183594 316.796875 172.183594 315.292969 C 172.183594 313.792969 173.402344 312.574219 174.902344 312.574219 L 202.105469 312.574219 C 203.609375 312.574219 204.828125 313.792969 204.828125 315.292969 C 204.828125 316.796875 203.609375 318.015625 202.105469 318.015625 Z M 202.105469 318.015625 " fill-opacity="1" fill-rule="nonzero"/><path fill="#737373" d="M 316.359375 247.285156 L 229.308594 247.285156 C 227.808594 247.285156 226.589844 246.066406 226.589844 244.566406 C 226.589844 243.0625 227.808594 241.84375 229.308594 241.84375 L 316.359375 241.84375 C 317.863281 241.84375 319.082031 243.0625 319.082031 244.566406 C 319.082031 246.066406 317.863281 247.285156 316.359375 247.285156 Z M 316.359375 247.285156 " fill-opacity="1" fill-rule="nonzero"/><path fill="#737373" d="M 324.523438 195.597656 L 169.460938 195.597656 C 167.960938 195.597656 166.742188 194.378906 166.742188 192.878906 C 166.742188 191.378906 167.960938 190.160156 169.460938 190.160156 L 324.523438 190.160156 C 326.023438 190.160156 327.242188 191.378906 327.242188 192.878906 C 327.242188 194.378906 326.023438 195.597656 324.523438 195.597656 Z M 324.523438 195.597656 " fill-opacity="1" fill-rule="nonzero"/><path fill="#737373" d="M 202.105469 247.285156 L 174.902344 247.285156 C 173.402344 247.285156 172.183594 246.066406 172.183594 244.566406 C 172.183594 243.0625 173.402344 241.84375 174.902344 241.84375 L 202.105469 241.84375 C 203.609375 241.84375 204.828125 243.0625 204.828125 244.566406 C 204.828125 246.066406 203.609375 247.285156 202.105469 247.285156 Z M 202.105469 247.285156 " fill-opacity="1" fill-rule="nonzero"/><path fill="#afaeae" d="M 332.683594 296.253906 L 319.082031 296.253906 L 319.082031 279.929688 L 332.683594 279.929688 C 337.1875 279.929688 340.84375 283.585938 340.84375 288.089844 C 340.84375 292.597656 337.1875 296.253906 332.683594 296.253906 Z M 332.683594 296.253906 " fill-opacity="1" fill-rule="nonzero"/><path fill="#737373" d="M 332.683594 298.972656 L 319.082031 298.972656 C 317.578125 298.972656 316.359375 297.753906 316.359375 296.253906 L 316.359375 279.929688 C 316.359375 278.429688 317.578125 277.210938 319.082031 277.210938 L 332.683594 277.210938 C 338.683594 277.210938 343.566406 282.089844 343.566406 288.089844 C 343.566406 294.09375 338.683594 298.972656 332.683594 298.972656 Z M 321.800781 293.53125 L 332.683594 293.53125 C 335.6875 293.53125 338.125 291.09375 338.125 288.089844 C 338.125 285.089844 335.6875 282.652344 332.683594 282.652344 L 321.800781 282.652344 Z M 321.800781 293.53125 " fill-opacity="1" fill-rule="nonzero"/><path fill="#737373" d="M 155.859375 282.652344 C 154.359375 282.652344 153.140625 281.433594 153.140625 279.929688 L 153.140625 160.234375 C 153.140625 140.589844 180.34375 140.589844 180.34375 160.234375 C 180.34375 161.734375 179.125 162.953125 177.621094 162.953125 C 176.121094 162.953125 174.902344 161.734375 174.902344 160.234375 C 174.902344 153.65625 170.804688 150.714844 166.742188 150.714844 C 162.675781 150.714844 158.582031 153.65625 158.582031 160.234375 L 158.582031 279.929688 C 158.582031 281.433594 157.363281 282.652344 155.859375 282.652344 Z M 155.859375 282.652344 " fill-opacity="1" fill-rule="nonzero"/><path fill="#afaeae" d="M 158.582031 296.253906 L 172.183594 296.253906 L 172.183594 279.929688 L 158.582031 279.929688 C 154.074219 279.929688 150.417969 283.585938 150.417969 288.089844 C 150.417969 292.597656 154.074219 296.253906 158.582031 296.253906 Z M 158.582031 296.253906 " fill-opacity="1" fill-rule="nonzero"/><path fill="#737373" d="M 172.183594 298.972656 L 158.582031 298.972656 C 152.578125 298.972656 147.699219 294.09375 147.699219 288.089844 C 147.699219 282.089844 152.578125 277.210938 158.582031 277.210938 L 172.183594 277.210938 C 173.683594 277.210938 174.902344 278.429688 174.902344 279.929688 L 174.902344 296.253906 C 174.902344 297.753906 173.683594 298.972656 172.183594 298.972656 Z M 158.582031 282.652344 C 155.582031 282.652344 153.140625 285.089844 153.140625 288.089844 C 153.140625 291.09375 155.582031 293.53125 158.582031 293.53125 L 169.460938 293.53125 L 169.460938 282.652344 Z M 158.582031 282.652344 " fill-opacity="1" fill-rule="nonzero"/><path fill="#737373" d="M 302.757812 232.324219 C 302.007812 232.324219 301.398438 231.714844 301.398438 230.964844 L 301.398438 203.761719 C 301.398438 203.007812 302.007812 202.398438 302.757812 202.398438 C 303.511719 202.398438 304.121094 203.007812 304.121094 203.761719 L 304.121094 230.964844 C 304.121094 231.714844 303.511719 232.324219 302.757812 232.324219 Z M 302.757812 232.324219 " fill-opacity="1" fill-rule="nonzero"/><path fill="#737373" d="M 302.757812 365.621094 C 302.007812 365.621094 301.398438 365.011719 301.398438 364.261719 L 301.398438 326.175781 C 301.398438 325.425781 302.007812 324.816406 302.757812 324.816406 C 303.511719 324.816406 304.121094 325.425781 304.121094 326.175781 L 304.121094 364.261719 C 304.121094 365.011719 303.511719 365.621094 302.757812 365.621094 Z M 302.757812 365.621094 " fill-opacity="1" fill-rule="nonzero"/><path fill="#737373" d="M 302.757812 305.773438 C 302.007812 305.773438 301.398438 305.164062 301.398438 304.414062 L 301.398438 277.210938 C 301.398438 276.460938 302.007812 275.851562 302.757812 275.851562 C 303.511719 275.851562 304.121094 276.460938 304.121094 277.210938 L 304.121094 304.414062 C 304.121094 305.164062 303.511719 305.773438 302.757812 305.773438 Z M 302.757812 305.773438 " fill-opacity="1" fill-rule="nonzero"/><path fill="#737373" d="M 302.757812 267.6875 C 302.007812 267.6875 301.398438 267.078125 301.398438 266.328125 L 301.398438 252.726562 C 301.398438 251.976562 302.007812 251.367188 302.757812 251.367188 C 303.511719 251.367188 304.121094 251.976562 304.121094 252.726562 L 304.121094 266.328125 C 304.121094 267.078125 303.511719 267.6875 302.757812 267.6875 Z M 302.757812 267.6875 " fill-opacity="1" fill-rule="nonzero"/><path fill="#fdfcef" d="M 93.292969 413.226562 L 109.613281 413.226562 L 109.613281 410.507812 L 138.859375 410.507812 C 138.859375 410.507812 177.023438 410.507812 190.542969 410.507812 C 204.066406 410.507812 215.027344 399.542969 215.027344 386.023438 C 215.027344 372.503906 204.066406 361.539062 190.542969 361.539062 C 189.527344 361.539062 188.5625 361.71875 187.578125 361.839844 C 186.378906 352.480469 178.472656 345.21875 168.78125 345.21875 C 162.867188 345.21875 157.65625 347.964844 154.164062 352.195312 C 154.761719 349.953125 155.179688 347.644531 155.179688 345.21875 C 155.179688 330.195312 143 318.015625 127.976562 318.015625 C 113.445312 318.015625 101.679688 329.441406 100.917969 343.78125 C 96.4375 338.070312 89.554688 334.335938 81.730469 334.335938 C 68.210938 334.335938 57.246094 345.300781 57.246094 358.820312 C 57.246094 359.835938 57.425781 360.800781 57.546875 361.785156 C 45.179688 363.015625 35.484375 373.332031 35.484375 386.023438 C 35.484375 399.542969 46.449219 410.507812 59.96875 410.507812 C 73.488281 410.507812 93.292969 410.507812 93.292969 410.507812 Z M 93.292969 413.226562 " fill-opacity="1" fill-rule="nonzero"/><path fill="#737373" d="M 127.976562 315.292969 C 114.074219 315.292969 102.300781 324.871094 99.046875 337.949219 C 94.207031 333.878906 88.128906 331.617188 81.730469 331.617188 C 66.730469 331.617188 54.527344 343.820312 54.527344 358.820312 C 54.527344 359.042969 54.53125 359.265625 54.542969 359.488281 C 41.953125 362.015625 32.765625 372.984375 32.765625 386.023438 C 32.765625 401.023438 44.96875 413.226562 59.96875 413.226562 L 93.292969 413.226562 C 94.792969 413.226562 96.011719 412.007812 96.011719 410.507812 C 96.011719 409.003906 94.792969 407.785156 93.292969 407.785156 L 59.972656 407.785156 C 47.972656 407.785156 38.210938 398.027344 38.210938 386.023438 C 38.210938 374.859375 46.636719 365.605469 57.820312 364.488281 C 58.542969 364.417969 59.210938 364.054688 59.667969 363.484375 C 60.125 362.910156 60.332031 362.183594 60.246094 361.453125 L 60.140625 360.6875 C 60.058594 360.070312 59.96875 359.457031 59.96875 358.820312 C 59.96875 346.816406 69.726562 337.058594 81.730469 337.058594 C 88.375 337.058594 94.582031 340.121094 98.78125 345.464844 C 99.304688 346.132812 100.097656 346.507812 100.914062 346.507812 C 101.191406 346.507812 101.46875 346.464844 101.742188 346.378906 C 102.824219 346.035156 103.582031 345.0625 103.640625 343.929688 C 104.332031 330.921875 115.027344 320.734375 127.980469 320.734375 C 141.480469 320.734375 152.464844 331.71875 152.464844 345.21875 C 152.464844 347.128906 152.171875 349.121094 151.539062 351.492188 C 151.214844 352.726562 151.785156 354.027344 152.921875 354.609375 C 153.3125 354.816406 153.738281 354.914062 154.164062 354.914062 C 154.953125 354.914062 155.730469 354.566406 156.261719 353.921875 C 159.40625 350.121094 163.964844 347.9375 168.78125 347.9375 C 176.921875 347.9375 183.839844 354.058594 184.882812 362.183594 C 185.058594 363.554688 186.234375 364.558594 187.574219 364.558594 C 187.6875 364.558594 187.796875 364.554688 187.910156 364.539062 L 188.679688 364.433594 C 189.292969 364.355469 189.90625 364.261719 190.542969 364.261719 C 202.546875 364.261719 212.308594 374.023438 212.308594 386.023438 C 212.308594 398.027344 202.546875 407.785156 190.542969 407.785156 L 109.613281 407.785156 C 108.113281 407.785156 106.894531 409.003906 106.894531 410.507812 C 106.894531 412.007812 108.113281 413.226562 109.613281 413.226562 L 190.542969 413.226562 C 205.542969 413.226562 217.75 401.023438 217.75 386.023438 C 217.75 371.023438 205.542969 358.820312 190.542969 358.820312 C 190.285156 358.820312 190.027344 358.832031 189.773438 358.847656 C 187.339844 349.359375 178.742188 342.5 168.78125 342.5 C 164.917969 342.5 161.175781 343.546875 157.898438 345.472656 C 157.898438 345.386719 157.898438 345.304688 157.898438 345.21875 C 157.898438 328.71875 144.476562 315.292969 127.976562 315.292969 Z M 127.976562 315.292969 " fill-opacity="1" fill-rule="nonzero"/><path fill="#737373" d="M 136.136719 353.378906 C 134.746094 353.378906 133.324219 353.597656 131.691406 354.058594 C 130.96875 354.265625 130.550781 355.015625 130.757812 355.742188 C 130.929688 356.335938 131.464844 356.730469 132.058594 356.730469 C 132.183594 356.730469 132.3125 356.714844 132.4375 356.675781 C 133.835938 356.28125 135.015625 356.09375 136.148438 356.09375 C 143.15625 356.09375 149.082031 361.605469 149.636719 368.636719 C 149.675781 369.152344 150 369.597656 150.480469 369.789062 C 150.640625 369.859375 150.8125 369.890625 150.984375 369.890625 C 151.304688 369.890625 151.628906 369.773438 151.882812 369.550781 C 153.765625 367.890625 156.148438 366.976562 158.582031 366.976562 C 164.207031 366.976562 168.78125 371.550781 168.78125 377.175781 C 168.78125 377.613281 168.988281 378.058594 169.335938 378.3125 C 169.585938 378.5 169.886719 378.609375 170.183594 378.609375 C 170.304688 378.609375 170.429688 378.59375 170.550781 378.554688 C 172.007812 378.089844 173.320312 377.863281 174.566406 377.863281 C 181.464844 377.863281 187.242188 383.289062 187.726562 390.203125 C 187.773438 390.914062 188.375 391.464844 189.082031 391.464844 C 189.113281 391.464844 189.144531 391.464844 189.179688 391.464844 C 189.925781 391.410156 190.488281 390.757812 190.441406 390.007812 C 189.859375 381.671875 182.882812 375.140625 174.566406 375.140625 C 173.535156 375.140625 172.488281 375.261719 171.382812 375.511719 C 170.539062 369.140625 165.121094 364.261719 158.582031 364.261719 C 156.261719 364.261719 153.984375 364.910156 151.984375 366.117188 C 150.332031 358.816406 143.769531 353.378906 136.136719 353.378906 Z M 136.136719 353.378906 " fill-opacity="1" fill-rule="nonzero"/><path fill="#737373" d="M 60.605469 361.539062 C 59.847656 361.539062 59.109375 361.628906 58.378906 361.726562 C 57.632812 361.824219 57.109375 362.507812 57.214844 363.253906 C 57.308594 363.933594 57.894531 364.433594 58.554688 364.433594 C 58.617188 364.433594 58.679688 364.429688 58.742188 364.417969 C 59.351562 364.335938 59.96875 364.261719 60.605469 364.261719 C 66.609375 364.261719 71.964844 368.332031 73.625 374.152344 C 73.792969 374.75 74.335938 375.140625 74.929688 375.140625 C 75.050781 375.140625 75.175781 375.125 75.304688 375.09375 C 76.027344 374.886719 76.449219 374.136719 76.242188 373.414062 C 74.25 366.421875 67.820312 361.539062 60.605469 361.539062 Z M 60.605469 361.539062 " fill-opacity="1" fill-rule="nonzero"/></svg>